%TF.GenerationSoftware,KiCad,Pcbnew,9.0.0*%
%TF.CreationDate,2025-03-16T01:26:31+03:00*%
%TF.ProjectId,128k_expander,3132386b-5f65-4787-9061-6e6465722e6b,rev?*%
%TF.SameCoordinates,Original*%
%TF.FileFunction,Legend,Top*%
%TF.FilePolarity,Positive*%
%FSLAX46Y46*%
G04 Gerber Fmt 4.6, Leading zero omitted, Abs format (unit mm)*
G04 Created by KiCad (PCBNEW 9.0.0) date 2025-03-16 01:26:31*
%MOMM*%
%LPD*%
G01*
G04 APERTURE LIST*
%ADD10C,0.100000*%
%ADD11C,0.150000*%
%ADD12C,0.120000*%
G04 APERTURE END LIST*
D10*
X89403884Y-93042587D02*
X89403884Y-92042587D01*
X89403884Y-92042587D02*
X89641979Y-92042587D01*
X89641979Y-92042587D02*
X89784836Y-92090206D01*
X89784836Y-92090206D02*
X89880074Y-92185444D01*
X89880074Y-92185444D02*
X89927693Y-92280682D01*
X89927693Y-92280682D02*
X89975312Y-92471158D01*
X89975312Y-92471158D02*
X89975312Y-92614015D01*
X89975312Y-92614015D02*
X89927693Y-92804491D01*
X89927693Y-92804491D02*
X89880074Y-92899729D01*
X89880074Y-92899729D02*
X89784836Y-92994968D01*
X89784836Y-92994968D02*
X89641979Y-93042587D01*
X89641979Y-93042587D02*
X89403884Y-93042587D01*
X90784836Y-92994968D02*
X90689598Y-93042587D01*
X90689598Y-93042587D02*
X90499122Y-93042587D01*
X90499122Y-93042587D02*
X90403884Y-92994968D01*
X90403884Y-92994968D02*
X90356265Y-92899729D01*
X90356265Y-92899729D02*
X90356265Y-92518777D01*
X90356265Y-92518777D02*
X90403884Y-92423539D01*
X90403884Y-92423539D02*
X90499122Y-92375920D01*
X90499122Y-92375920D02*
X90689598Y-92375920D01*
X90689598Y-92375920D02*
X90784836Y-92423539D01*
X90784836Y-92423539D02*
X90832455Y-92518777D01*
X90832455Y-92518777D02*
X90832455Y-92614015D01*
X90832455Y-92614015D02*
X90356265Y-92709253D01*
X91403884Y-93042587D02*
X91308646Y-92994968D01*
X91308646Y-92994968D02*
X91261027Y-92899729D01*
X91261027Y-92899729D02*
X91261027Y-92042587D01*
X91641980Y-92375920D02*
X92022932Y-92375920D01*
X91784837Y-92042587D02*
X91784837Y-92899729D01*
X91784837Y-92899729D02*
X91832456Y-92994968D01*
X91832456Y-92994968D02*
X91927694Y-93042587D01*
X91927694Y-93042587D02*
X92022932Y-93042587D01*
X92784837Y-93042587D02*
X92784837Y-92518777D01*
X92784837Y-92518777D02*
X92737218Y-92423539D01*
X92737218Y-92423539D02*
X92641980Y-92375920D01*
X92641980Y-92375920D02*
X92451504Y-92375920D01*
X92451504Y-92375920D02*
X92356266Y-92423539D01*
X92784837Y-92994968D02*
X92689599Y-93042587D01*
X92689599Y-93042587D02*
X92451504Y-93042587D01*
X92451504Y-93042587D02*
X92356266Y-92994968D01*
X92356266Y-92994968D02*
X92308647Y-92899729D01*
X92308647Y-92899729D02*
X92308647Y-92804491D01*
X92308647Y-92804491D02*
X92356266Y-92709253D01*
X92356266Y-92709253D02*
X92451504Y-92661634D01*
X92451504Y-92661634D02*
X92689599Y-92661634D01*
X92689599Y-92661634D02*
X92784837Y-92614015D01*
X93261028Y-92661634D02*
X94022933Y-92661634D01*
X94451504Y-92994968D02*
X94594361Y-93042587D01*
X94594361Y-93042587D02*
X94832456Y-93042587D01*
X94832456Y-93042587D02*
X94927694Y-92994968D01*
X94927694Y-92994968D02*
X94975313Y-92947348D01*
X94975313Y-92947348D02*
X95022932Y-92852110D01*
X95022932Y-92852110D02*
X95022932Y-92756872D01*
X95022932Y-92756872D02*
X94975313Y-92661634D01*
X94975313Y-92661634D02*
X94927694Y-92614015D01*
X94927694Y-92614015D02*
X94832456Y-92566396D01*
X94832456Y-92566396D02*
X94641980Y-92518777D01*
X94641980Y-92518777D02*
X94546742Y-92471158D01*
X94546742Y-92471158D02*
X94499123Y-92423539D01*
X94499123Y-92423539D02*
X94451504Y-92328301D01*
X94451504Y-92328301D02*
X94451504Y-92233063D01*
X94451504Y-92233063D02*
X94499123Y-92137825D01*
X94499123Y-92137825D02*
X94546742Y-92090206D01*
X94546742Y-92090206D02*
X94641980Y-92042587D01*
X94641980Y-92042587D02*
X94880075Y-92042587D01*
X94880075Y-92042587D02*
X95022932Y-92090206D01*
X95451504Y-92661634D02*
X96213409Y-92661634D01*
X96689599Y-93042587D02*
X96689599Y-92042587D01*
X96689599Y-92042587D02*
X97022932Y-92756872D01*
X97022932Y-92756872D02*
X97356265Y-92042587D01*
X97356265Y-92042587D02*
X97356265Y-93042587D01*
X89403884Y-94128721D02*
X89737217Y-94128721D01*
X89880074Y-94652531D02*
X89403884Y-94652531D01*
X89403884Y-94652531D02*
X89403884Y-93652531D01*
X89403884Y-93652531D02*
X89880074Y-93652531D01*
X90213408Y-94652531D02*
X90737217Y-93985864D01*
X90213408Y-93985864D02*
X90737217Y-94652531D01*
X91118170Y-93985864D02*
X91118170Y-94985864D01*
X91118170Y-94033483D02*
X91213408Y-93985864D01*
X91213408Y-93985864D02*
X91403884Y-93985864D01*
X91403884Y-93985864D02*
X91499122Y-94033483D01*
X91499122Y-94033483D02*
X91546741Y-94081102D01*
X91546741Y-94081102D02*
X91594360Y-94176340D01*
X91594360Y-94176340D02*
X91594360Y-94462054D01*
X91594360Y-94462054D02*
X91546741Y-94557292D01*
X91546741Y-94557292D02*
X91499122Y-94604912D01*
X91499122Y-94604912D02*
X91403884Y-94652531D01*
X91403884Y-94652531D02*
X91213408Y-94652531D01*
X91213408Y-94652531D02*
X91118170Y-94604912D01*
X92403884Y-94604912D02*
X92308646Y-94652531D01*
X92308646Y-94652531D02*
X92118170Y-94652531D01*
X92118170Y-94652531D02*
X92022932Y-94604912D01*
X92022932Y-94604912D02*
X91975313Y-94509673D01*
X91975313Y-94509673D02*
X91975313Y-94128721D01*
X91975313Y-94128721D02*
X92022932Y-94033483D01*
X92022932Y-94033483D02*
X92118170Y-93985864D01*
X92118170Y-93985864D02*
X92308646Y-93985864D01*
X92308646Y-93985864D02*
X92403884Y-94033483D01*
X92403884Y-94033483D02*
X92451503Y-94128721D01*
X92451503Y-94128721D02*
X92451503Y-94223959D01*
X92451503Y-94223959D02*
X91975313Y-94319197D01*
X92880075Y-94652531D02*
X92880075Y-93985864D01*
X92880075Y-94176340D02*
X92927694Y-94081102D01*
X92927694Y-94081102D02*
X92975313Y-94033483D01*
X92975313Y-94033483D02*
X93070551Y-93985864D01*
X93070551Y-93985864D02*
X93165789Y-93985864D01*
X93499123Y-94652531D02*
X93499123Y-93985864D01*
X93499123Y-93652531D02*
X93451504Y-93700150D01*
X93451504Y-93700150D02*
X93499123Y-93747769D01*
X93499123Y-93747769D02*
X93546742Y-93700150D01*
X93546742Y-93700150D02*
X93499123Y-93652531D01*
X93499123Y-93652531D02*
X93499123Y-93747769D01*
X93975313Y-94652531D02*
X93975313Y-93985864D01*
X93975313Y-94081102D02*
X94022932Y-94033483D01*
X94022932Y-94033483D02*
X94118170Y-93985864D01*
X94118170Y-93985864D02*
X94261027Y-93985864D01*
X94261027Y-93985864D02*
X94356265Y-94033483D01*
X94356265Y-94033483D02*
X94403884Y-94128721D01*
X94403884Y-94128721D02*
X94403884Y-94652531D01*
X94403884Y-94128721D02*
X94451503Y-94033483D01*
X94451503Y-94033483D02*
X94546741Y-93985864D01*
X94546741Y-93985864D02*
X94689598Y-93985864D01*
X94689598Y-93985864D02*
X94784837Y-94033483D01*
X94784837Y-94033483D02*
X94832456Y-94128721D01*
X94832456Y-94128721D02*
X94832456Y-94652531D01*
X95689598Y-94604912D02*
X95594360Y-94652531D01*
X95594360Y-94652531D02*
X95403884Y-94652531D01*
X95403884Y-94652531D02*
X95308646Y-94604912D01*
X95308646Y-94604912D02*
X95261027Y-94509673D01*
X95261027Y-94509673D02*
X95261027Y-94128721D01*
X95261027Y-94128721D02*
X95308646Y-94033483D01*
X95308646Y-94033483D02*
X95403884Y-93985864D01*
X95403884Y-93985864D02*
X95594360Y-93985864D01*
X95594360Y-93985864D02*
X95689598Y-94033483D01*
X95689598Y-94033483D02*
X95737217Y-94128721D01*
X95737217Y-94128721D02*
X95737217Y-94223959D01*
X95737217Y-94223959D02*
X95261027Y-94319197D01*
X96165789Y-93985864D02*
X96165789Y-94652531D01*
X96165789Y-94081102D02*
X96213408Y-94033483D01*
X96213408Y-94033483D02*
X96308646Y-93985864D01*
X96308646Y-93985864D02*
X96451503Y-93985864D01*
X96451503Y-93985864D02*
X96546741Y-94033483D01*
X96546741Y-94033483D02*
X96594360Y-94128721D01*
X96594360Y-94128721D02*
X96594360Y-94652531D01*
X96927694Y-93985864D02*
X97308646Y-93985864D01*
X97070551Y-93652531D02*
X97070551Y-94509673D01*
X97070551Y-94509673D02*
X97118170Y-94604912D01*
X97118170Y-94604912D02*
X97213408Y-94652531D01*
X97213408Y-94652531D02*
X97308646Y-94652531D01*
X98070551Y-94652531D02*
X98070551Y-94128721D01*
X98070551Y-94128721D02*
X98022932Y-94033483D01*
X98022932Y-94033483D02*
X97927694Y-93985864D01*
X97927694Y-93985864D02*
X97737218Y-93985864D01*
X97737218Y-93985864D02*
X97641980Y-94033483D01*
X98070551Y-94604912D02*
X97975313Y-94652531D01*
X97975313Y-94652531D02*
X97737218Y-94652531D01*
X97737218Y-94652531D02*
X97641980Y-94604912D01*
X97641980Y-94604912D02*
X97594361Y-94509673D01*
X97594361Y-94509673D02*
X97594361Y-94414435D01*
X97594361Y-94414435D02*
X97641980Y-94319197D01*
X97641980Y-94319197D02*
X97737218Y-94271578D01*
X97737218Y-94271578D02*
X97975313Y-94271578D01*
X97975313Y-94271578D02*
X98070551Y-94223959D01*
X98689599Y-94652531D02*
X98594361Y-94604912D01*
X98594361Y-94604912D02*
X98546742Y-94509673D01*
X98546742Y-94509673D02*
X98546742Y-93652531D01*
X100356266Y-94652531D02*
X99784838Y-94652531D01*
X100070552Y-94652531D02*
X100070552Y-93652531D01*
X100070552Y-93652531D02*
X99975314Y-93795388D01*
X99975314Y-93795388D02*
X99880076Y-93890626D01*
X99880076Y-93890626D02*
X99784838Y-93938245D01*
X100737219Y-93747769D02*
X100784838Y-93700150D01*
X100784838Y-93700150D02*
X100880076Y-93652531D01*
X100880076Y-93652531D02*
X101118171Y-93652531D01*
X101118171Y-93652531D02*
X101213409Y-93700150D01*
X101213409Y-93700150D02*
X101261028Y-93747769D01*
X101261028Y-93747769D02*
X101308647Y-93843007D01*
X101308647Y-93843007D02*
X101308647Y-93938245D01*
X101308647Y-93938245D02*
X101261028Y-94081102D01*
X101261028Y-94081102D02*
X100689600Y-94652531D01*
X100689600Y-94652531D02*
X101308647Y-94652531D01*
X101880076Y-94081102D02*
X101784838Y-94033483D01*
X101784838Y-94033483D02*
X101737219Y-93985864D01*
X101737219Y-93985864D02*
X101689600Y-93890626D01*
X101689600Y-93890626D02*
X101689600Y-93843007D01*
X101689600Y-93843007D02*
X101737219Y-93747769D01*
X101737219Y-93747769D02*
X101784838Y-93700150D01*
X101784838Y-93700150D02*
X101880076Y-93652531D01*
X101880076Y-93652531D02*
X102070552Y-93652531D01*
X102070552Y-93652531D02*
X102165790Y-93700150D01*
X102165790Y-93700150D02*
X102213409Y-93747769D01*
X102213409Y-93747769D02*
X102261028Y-93843007D01*
X102261028Y-93843007D02*
X102261028Y-93890626D01*
X102261028Y-93890626D02*
X102213409Y-93985864D01*
X102213409Y-93985864D02*
X102165790Y-94033483D01*
X102165790Y-94033483D02*
X102070552Y-94081102D01*
X102070552Y-94081102D02*
X101880076Y-94081102D01*
X101880076Y-94081102D02*
X101784838Y-94128721D01*
X101784838Y-94128721D02*
X101737219Y-94176340D01*
X101737219Y-94176340D02*
X101689600Y-94271578D01*
X101689600Y-94271578D02*
X101689600Y-94462054D01*
X101689600Y-94462054D02*
X101737219Y-94557292D01*
X101737219Y-94557292D02*
X101784838Y-94604912D01*
X101784838Y-94604912D02*
X101880076Y-94652531D01*
X101880076Y-94652531D02*
X102070552Y-94652531D01*
X102070552Y-94652531D02*
X102165790Y-94604912D01*
X102165790Y-94604912D02*
X102213409Y-94557292D01*
X102213409Y-94557292D02*
X102261028Y-94462054D01*
X102261028Y-94462054D02*
X102261028Y-94271578D01*
X102261028Y-94271578D02*
X102213409Y-94176340D01*
X102213409Y-94176340D02*
X102165790Y-94128721D01*
X102165790Y-94128721D02*
X102070552Y-94081102D01*
X102689600Y-94652531D02*
X102689600Y-93652531D01*
X103261028Y-94652531D02*
X102832457Y-94081102D01*
X103261028Y-93652531D02*
X102689600Y-94223959D01*
X104451505Y-94652531D02*
X104451505Y-93652531D01*
X104451505Y-93652531D02*
X104784838Y-94366816D01*
X104784838Y-94366816D02*
X105118171Y-93652531D01*
X105118171Y-93652531D02*
X105118171Y-94652531D01*
X105737219Y-94652531D02*
X105641981Y-94604912D01*
X105641981Y-94604912D02*
X105594362Y-94557292D01*
X105594362Y-94557292D02*
X105546743Y-94462054D01*
X105546743Y-94462054D02*
X105546743Y-94176340D01*
X105546743Y-94176340D02*
X105594362Y-94081102D01*
X105594362Y-94081102D02*
X105641981Y-94033483D01*
X105641981Y-94033483D02*
X105737219Y-93985864D01*
X105737219Y-93985864D02*
X105880076Y-93985864D01*
X105880076Y-93985864D02*
X105975314Y-94033483D01*
X105975314Y-94033483D02*
X106022933Y-94081102D01*
X106022933Y-94081102D02*
X106070552Y-94176340D01*
X106070552Y-94176340D02*
X106070552Y-94462054D01*
X106070552Y-94462054D02*
X106022933Y-94557292D01*
X106022933Y-94557292D02*
X105975314Y-94604912D01*
X105975314Y-94604912D02*
X105880076Y-94652531D01*
X105880076Y-94652531D02*
X105737219Y-94652531D01*
X106927695Y-94652531D02*
X106927695Y-93652531D01*
X106927695Y-94604912D02*
X106832457Y-94652531D01*
X106832457Y-94652531D02*
X106641981Y-94652531D01*
X106641981Y-94652531D02*
X106546743Y-94604912D01*
X106546743Y-94604912D02*
X106499124Y-94557292D01*
X106499124Y-94557292D02*
X106451505Y-94462054D01*
X106451505Y-94462054D02*
X106451505Y-94176340D01*
X106451505Y-94176340D02*
X106499124Y-94081102D01*
X106499124Y-94081102D02*
X106546743Y-94033483D01*
X106546743Y-94033483D02*
X106641981Y-93985864D01*
X106641981Y-93985864D02*
X106832457Y-93985864D01*
X106832457Y-93985864D02*
X106927695Y-94033483D01*
X89403884Y-96262475D02*
X89403884Y-95262475D01*
X89403884Y-95262475D02*
X89737217Y-95976760D01*
X89737217Y-95976760D02*
X90070550Y-95262475D01*
X90070550Y-95262475D02*
X90070550Y-96262475D01*
X90975312Y-96262475D02*
X90975312Y-95738665D01*
X90975312Y-95738665D02*
X90927693Y-95643427D01*
X90927693Y-95643427D02*
X90832455Y-95595808D01*
X90832455Y-95595808D02*
X90641979Y-95595808D01*
X90641979Y-95595808D02*
X90546741Y-95643427D01*
X90975312Y-96214856D02*
X90880074Y-96262475D01*
X90880074Y-96262475D02*
X90641979Y-96262475D01*
X90641979Y-96262475D02*
X90546741Y-96214856D01*
X90546741Y-96214856D02*
X90499122Y-96119617D01*
X90499122Y-96119617D02*
X90499122Y-96024379D01*
X90499122Y-96024379D02*
X90546741Y-95929141D01*
X90546741Y-95929141D02*
X90641979Y-95881522D01*
X90641979Y-95881522D02*
X90880074Y-95881522D01*
X90880074Y-95881522D02*
X90975312Y-95833903D01*
X91880074Y-96262475D02*
X91880074Y-95262475D01*
X91880074Y-96214856D02*
X91784836Y-96262475D01*
X91784836Y-96262475D02*
X91594360Y-96262475D01*
X91594360Y-96262475D02*
X91499122Y-96214856D01*
X91499122Y-96214856D02*
X91451503Y-96167236D01*
X91451503Y-96167236D02*
X91403884Y-96071998D01*
X91403884Y-96071998D02*
X91403884Y-95786284D01*
X91403884Y-95786284D02*
X91451503Y-95691046D01*
X91451503Y-95691046D02*
X91499122Y-95643427D01*
X91499122Y-95643427D02*
X91594360Y-95595808D01*
X91594360Y-95595808D02*
X91784836Y-95595808D01*
X91784836Y-95595808D02*
X91880074Y-95643427D01*
X92927693Y-96167236D02*
X92880074Y-96214856D01*
X92880074Y-96214856D02*
X92737217Y-96262475D01*
X92737217Y-96262475D02*
X92641979Y-96262475D01*
X92641979Y-96262475D02*
X92499122Y-96214856D01*
X92499122Y-96214856D02*
X92403884Y-96119617D01*
X92403884Y-96119617D02*
X92356265Y-96024379D01*
X92356265Y-96024379D02*
X92308646Y-95833903D01*
X92308646Y-95833903D02*
X92308646Y-95691046D01*
X92308646Y-95691046D02*
X92356265Y-95500570D01*
X92356265Y-95500570D02*
X92403884Y-95405332D01*
X92403884Y-95405332D02*
X92499122Y-95310094D01*
X92499122Y-95310094D02*
X92641979Y-95262475D01*
X92641979Y-95262475D02*
X92737217Y-95262475D01*
X92737217Y-95262475D02*
X92880074Y-95310094D01*
X92880074Y-95310094D02*
X92927693Y-95357713D01*
X93784836Y-96262475D02*
X93784836Y-95738665D01*
X93784836Y-95738665D02*
X93737217Y-95643427D01*
X93737217Y-95643427D02*
X93641979Y-95595808D01*
X93641979Y-95595808D02*
X93451503Y-95595808D01*
X93451503Y-95595808D02*
X93356265Y-95643427D01*
X93784836Y-96214856D02*
X93689598Y-96262475D01*
X93689598Y-96262475D02*
X93451503Y-96262475D01*
X93451503Y-96262475D02*
X93356265Y-96214856D01*
X93356265Y-96214856D02*
X93308646Y-96119617D01*
X93308646Y-96119617D02*
X93308646Y-96024379D01*
X93308646Y-96024379D02*
X93356265Y-95929141D01*
X93356265Y-95929141D02*
X93451503Y-95881522D01*
X93451503Y-95881522D02*
X93689598Y-95881522D01*
X93689598Y-95881522D02*
X93784836Y-95833903D01*
X94118170Y-95595808D02*
X94499122Y-95595808D01*
X94261027Y-95262475D02*
X94261027Y-96119617D01*
X94261027Y-96119617D02*
X94308646Y-96214856D01*
X94308646Y-96214856D02*
X94403884Y-96262475D01*
X94403884Y-96262475D02*
X94499122Y-96262475D01*
X94880075Y-96214856D02*
X94880075Y-96262475D01*
X94880075Y-96262475D02*
X94832456Y-96357713D01*
X94832456Y-96357713D02*
X94784837Y-96405332D01*
X96022932Y-95357713D02*
X96070551Y-95310094D01*
X96070551Y-95310094D02*
X96165789Y-95262475D01*
X96165789Y-95262475D02*
X96403884Y-95262475D01*
X96403884Y-95262475D02*
X96499122Y-95310094D01*
X96499122Y-95310094D02*
X96546741Y-95357713D01*
X96546741Y-95357713D02*
X96594360Y-95452951D01*
X96594360Y-95452951D02*
X96594360Y-95548189D01*
X96594360Y-95548189D02*
X96546741Y-95691046D01*
X96546741Y-95691046D02*
X95975313Y-96262475D01*
X95975313Y-96262475D02*
X96594360Y-96262475D01*
X97213408Y-95262475D02*
X97308646Y-95262475D01*
X97308646Y-95262475D02*
X97403884Y-95310094D01*
X97403884Y-95310094D02*
X97451503Y-95357713D01*
X97451503Y-95357713D02*
X97499122Y-95452951D01*
X97499122Y-95452951D02*
X97546741Y-95643427D01*
X97546741Y-95643427D02*
X97546741Y-95881522D01*
X97546741Y-95881522D02*
X97499122Y-96071998D01*
X97499122Y-96071998D02*
X97451503Y-96167236D01*
X97451503Y-96167236D02*
X97403884Y-96214856D01*
X97403884Y-96214856D02*
X97308646Y-96262475D01*
X97308646Y-96262475D02*
X97213408Y-96262475D01*
X97213408Y-96262475D02*
X97118170Y-96214856D01*
X97118170Y-96214856D02*
X97070551Y-96167236D01*
X97070551Y-96167236D02*
X97022932Y-96071998D01*
X97022932Y-96071998D02*
X96975313Y-95881522D01*
X96975313Y-95881522D02*
X96975313Y-95643427D01*
X96975313Y-95643427D02*
X97022932Y-95452951D01*
X97022932Y-95452951D02*
X97070551Y-95357713D01*
X97070551Y-95357713D02*
X97118170Y-95310094D01*
X97118170Y-95310094D02*
X97213408Y-95262475D01*
X97927694Y-95357713D02*
X97975313Y-95310094D01*
X97975313Y-95310094D02*
X98070551Y-95262475D01*
X98070551Y-95262475D02*
X98308646Y-95262475D01*
X98308646Y-95262475D02*
X98403884Y-95310094D01*
X98403884Y-95310094D02*
X98451503Y-95357713D01*
X98451503Y-95357713D02*
X98499122Y-95452951D01*
X98499122Y-95452951D02*
X98499122Y-95548189D01*
X98499122Y-95548189D02*
X98451503Y-95691046D01*
X98451503Y-95691046D02*
X97880075Y-96262475D01*
X97880075Y-96262475D02*
X98499122Y-96262475D01*
X99403884Y-95262475D02*
X98927694Y-95262475D01*
X98927694Y-95262475D02*
X98880075Y-95738665D01*
X98880075Y-95738665D02*
X98927694Y-95691046D01*
X98927694Y-95691046D02*
X99022932Y-95643427D01*
X99022932Y-95643427D02*
X99261027Y-95643427D01*
X99261027Y-95643427D02*
X99356265Y-95691046D01*
X99356265Y-95691046D02*
X99403884Y-95738665D01*
X99403884Y-95738665D02*
X99451503Y-95833903D01*
X99451503Y-95833903D02*
X99451503Y-96071998D01*
X99451503Y-96071998D02*
X99403884Y-96167236D01*
X99403884Y-96167236D02*
X99356265Y-96214856D01*
X99356265Y-96214856D02*
X99261027Y-96262475D01*
X99261027Y-96262475D02*
X99022932Y-96262475D01*
X99022932Y-96262475D02*
X98927694Y-96214856D01*
X98927694Y-96214856D02*
X98880075Y-96167236D01*
X89261027Y-96872419D02*
X89594360Y-97872419D01*
X89594360Y-97872419D02*
X89927693Y-96872419D01*
X90641979Y-97824800D02*
X90546741Y-97872419D01*
X90546741Y-97872419D02*
X90356265Y-97872419D01*
X90356265Y-97872419D02*
X90261027Y-97824800D01*
X90261027Y-97824800D02*
X90213408Y-97729561D01*
X90213408Y-97729561D02*
X90213408Y-97348609D01*
X90213408Y-97348609D02*
X90261027Y-97253371D01*
X90261027Y-97253371D02*
X90356265Y-97205752D01*
X90356265Y-97205752D02*
X90546741Y-97205752D01*
X90546741Y-97205752D02*
X90641979Y-97253371D01*
X90641979Y-97253371D02*
X90689598Y-97348609D01*
X90689598Y-97348609D02*
X90689598Y-97443847D01*
X90689598Y-97443847D02*
X90213408Y-97539085D01*
X91118170Y-97872419D02*
X91118170Y-97205752D01*
X91118170Y-97396228D02*
X91165789Y-97300990D01*
X91165789Y-97300990D02*
X91213408Y-97253371D01*
X91213408Y-97253371D02*
X91308646Y-97205752D01*
X91308646Y-97205752D02*
X91403884Y-97205752D01*
X91689599Y-97824800D02*
X91784837Y-97872419D01*
X91784837Y-97872419D02*
X91975313Y-97872419D01*
X91975313Y-97872419D02*
X92070551Y-97824800D01*
X92070551Y-97824800D02*
X92118170Y-97729561D01*
X92118170Y-97729561D02*
X92118170Y-97681942D01*
X92118170Y-97681942D02*
X92070551Y-97586704D01*
X92070551Y-97586704D02*
X91975313Y-97539085D01*
X91975313Y-97539085D02*
X91832456Y-97539085D01*
X91832456Y-97539085D02*
X91737218Y-97491466D01*
X91737218Y-97491466D02*
X91689599Y-97396228D01*
X91689599Y-97396228D02*
X91689599Y-97348609D01*
X91689599Y-97348609D02*
X91737218Y-97253371D01*
X91737218Y-97253371D02*
X91832456Y-97205752D01*
X91832456Y-97205752D02*
X91975313Y-97205752D01*
X91975313Y-97205752D02*
X92070551Y-97253371D01*
X92546742Y-97872419D02*
X92546742Y-97205752D01*
X92546742Y-96872419D02*
X92499123Y-96920038D01*
X92499123Y-96920038D02*
X92546742Y-96967657D01*
X92546742Y-96967657D02*
X92594361Y-96920038D01*
X92594361Y-96920038D02*
X92546742Y-96872419D01*
X92546742Y-96872419D02*
X92546742Y-96967657D01*
X93165789Y-97872419D02*
X93070551Y-97824800D01*
X93070551Y-97824800D02*
X93022932Y-97777180D01*
X93022932Y-97777180D02*
X92975313Y-97681942D01*
X92975313Y-97681942D02*
X92975313Y-97396228D01*
X92975313Y-97396228D02*
X93022932Y-97300990D01*
X93022932Y-97300990D02*
X93070551Y-97253371D01*
X93070551Y-97253371D02*
X93165789Y-97205752D01*
X93165789Y-97205752D02*
X93308646Y-97205752D01*
X93308646Y-97205752D02*
X93403884Y-97253371D01*
X93403884Y-97253371D02*
X93451503Y-97300990D01*
X93451503Y-97300990D02*
X93499122Y-97396228D01*
X93499122Y-97396228D02*
X93499122Y-97681942D01*
X93499122Y-97681942D02*
X93451503Y-97777180D01*
X93451503Y-97777180D02*
X93403884Y-97824800D01*
X93403884Y-97824800D02*
X93308646Y-97872419D01*
X93308646Y-97872419D02*
X93165789Y-97872419D01*
X93927694Y-97205752D02*
X93927694Y-97872419D01*
X93927694Y-97300990D02*
X93975313Y-97253371D01*
X93975313Y-97253371D02*
X94070551Y-97205752D01*
X94070551Y-97205752D02*
X94213408Y-97205752D01*
X94213408Y-97205752D02*
X94308646Y-97253371D01*
X94308646Y-97253371D02*
X94356265Y-97348609D01*
X94356265Y-97348609D02*
X94356265Y-97872419D01*
X96118170Y-97872419D02*
X95546742Y-97872419D01*
X95832456Y-97872419D02*
X95832456Y-96872419D01*
X95832456Y-96872419D02*
X95737218Y-97015276D01*
X95737218Y-97015276D02*
X95641980Y-97110514D01*
X95641980Y-97110514D02*
X95546742Y-97158133D01*
X96546742Y-97777180D02*
X96594361Y-97824800D01*
X96594361Y-97824800D02*
X96546742Y-97872419D01*
X96546742Y-97872419D02*
X96499123Y-97824800D01*
X96499123Y-97824800D02*
X96546742Y-97777180D01*
X96546742Y-97777180D02*
X96546742Y-97872419D01*
X97213408Y-96872419D02*
X97308646Y-96872419D01*
X97308646Y-96872419D02*
X97403884Y-96920038D01*
X97403884Y-96920038D02*
X97451503Y-96967657D01*
X97451503Y-96967657D02*
X97499122Y-97062895D01*
X97499122Y-97062895D02*
X97546741Y-97253371D01*
X97546741Y-97253371D02*
X97546741Y-97491466D01*
X97546741Y-97491466D02*
X97499122Y-97681942D01*
X97499122Y-97681942D02*
X97451503Y-97777180D01*
X97451503Y-97777180D02*
X97403884Y-97824800D01*
X97403884Y-97824800D02*
X97308646Y-97872419D01*
X97308646Y-97872419D02*
X97213408Y-97872419D01*
X97213408Y-97872419D02*
X97118170Y-97824800D01*
X97118170Y-97824800D02*
X97070551Y-97777180D01*
X97070551Y-97777180D02*
X97022932Y-97681942D01*
X97022932Y-97681942D02*
X96975313Y-97491466D01*
X96975313Y-97491466D02*
X96975313Y-97253371D01*
X96975313Y-97253371D02*
X97022932Y-97062895D01*
X97022932Y-97062895D02*
X97070551Y-96967657D01*
X97070551Y-96967657D02*
X97118170Y-96920038D01*
X97118170Y-96920038D02*
X97213408Y-96872419D01*
X98499122Y-97872419D02*
X97927694Y-97872419D01*
X98213408Y-97872419D02*
X98213408Y-96872419D01*
X98213408Y-96872419D02*
X98118170Y-97015276D01*
X98118170Y-97015276D02*
X98022932Y-97110514D01*
X98022932Y-97110514D02*
X97927694Y-97158133D01*
X111127693Y-101162475D02*
X110556265Y-101162475D01*
X110841979Y-101162475D02*
X110841979Y-100162475D01*
X110841979Y-100162475D02*
X110746741Y-100305332D01*
X110746741Y-100305332D02*
X110651503Y-100400570D01*
X110651503Y-100400570D02*
X110556265Y-100448189D01*
X111556265Y-100781522D02*
X112318170Y-100781522D01*
X112746741Y-100257713D02*
X112794360Y-100210094D01*
X112794360Y-100210094D02*
X112889598Y-100162475D01*
X112889598Y-100162475D02*
X113127693Y-100162475D01*
X113127693Y-100162475D02*
X113222931Y-100210094D01*
X113222931Y-100210094D02*
X113270550Y-100257713D01*
X113270550Y-100257713D02*
X113318169Y-100352951D01*
X113318169Y-100352951D02*
X113318169Y-100448189D01*
X113318169Y-100448189D02*
X113270550Y-100591046D01*
X113270550Y-100591046D02*
X112699122Y-101162475D01*
X112699122Y-101162475D02*
X113318169Y-101162475D01*
X113746741Y-101067236D02*
X113794360Y-101114856D01*
X113794360Y-101114856D02*
X113746741Y-101162475D01*
X113746741Y-101162475D02*
X113699122Y-101114856D01*
X113699122Y-101114856D02*
X113746741Y-101067236D01*
X113746741Y-101067236D02*
X113746741Y-101162475D01*
X113746741Y-100543427D02*
X113794360Y-100591046D01*
X113794360Y-100591046D02*
X113746741Y-100638665D01*
X113746741Y-100638665D02*
X113699122Y-100591046D01*
X113699122Y-100591046D02*
X113746741Y-100543427D01*
X113746741Y-100543427D02*
X113746741Y-100638665D01*
X115461026Y-100162475D02*
X114984836Y-100162475D01*
X114984836Y-100162475D02*
X114937217Y-100638665D01*
X114937217Y-100638665D02*
X114984836Y-100591046D01*
X114984836Y-100591046D02*
X115080074Y-100543427D01*
X115080074Y-100543427D02*
X115318169Y-100543427D01*
X115318169Y-100543427D02*
X115413407Y-100591046D01*
X115413407Y-100591046D02*
X115461026Y-100638665D01*
X115461026Y-100638665D02*
X115508645Y-100733903D01*
X115508645Y-100733903D02*
X115508645Y-100971998D01*
X115508645Y-100971998D02*
X115461026Y-101067236D01*
X115461026Y-101067236D02*
X115413407Y-101114856D01*
X115413407Y-101114856D02*
X115318169Y-101162475D01*
X115318169Y-101162475D02*
X115080074Y-101162475D01*
X115080074Y-101162475D02*
X114984836Y-101114856D01*
X114984836Y-101114856D02*
X114937217Y-101067236D01*
X116461026Y-101162475D02*
X115889598Y-101162475D01*
X116175312Y-101162475D02*
X116175312Y-100162475D01*
X116175312Y-100162475D02*
X116080074Y-100305332D01*
X116080074Y-100305332D02*
X115984836Y-100400570D01*
X115984836Y-100400570D02*
X115889598Y-100448189D01*
X116841979Y-100257713D02*
X116889598Y-100210094D01*
X116889598Y-100210094D02*
X116984836Y-100162475D01*
X116984836Y-100162475D02*
X117222931Y-100162475D01*
X117222931Y-100162475D02*
X117318169Y-100210094D01*
X117318169Y-100210094D02*
X117365788Y-100257713D01*
X117365788Y-100257713D02*
X117413407Y-100352951D01*
X117413407Y-100352951D02*
X117413407Y-100448189D01*
X117413407Y-100448189D02*
X117365788Y-100591046D01*
X117365788Y-100591046D02*
X116794360Y-101162475D01*
X116794360Y-101162475D02*
X117413407Y-101162475D01*
X117841979Y-101162475D02*
X117841979Y-100162475D01*
X118413407Y-101162475D02*
X117984836Y-100591046D01*
X118413407Y-100162475D02*
X117841979Y-100733903D01*
X110556265Y-101867657D02*
X110603884Y-101820038D01*
X110603884Y-101820038D02*
X110699122Y-101772419D01*
X110699122Y-101772419D02*
X110937217Y-101772419D01*
X110937217Y-101772419D02*
X111032455Y-101820038D01*
X111032455Y-101820038D02*
X111080074Y-101867657D01*
X111080074Y-101867657D02*
X111127693Y-101962895D01*
X111127693Y-101962895D02*
X111127693Y-102058133D01*
X111127693Y-102058133D02*
X111080074Y-102200990D01*
X111080074Y-102200990D02*
X110508646Y-102772419D01*
X110508646Y-102772419D02*
X111127693Y-102772419D01*
X111556265Y-102391466D02*
X112318170Y-102391466D01*
X112699122Y-101772419D02*
X113318169Y-101772419D01*
X113318169Y-101772419D02*
X112984836Y-102153371D01*
X112984836Y-102153371D02*
X113127693Y-102153371D01*
X113127693Y-102153371D02*
X113222931Y-102200990D01*
X113222931Y-102200990D02*
X113270550Y-102248609D01*
X113270550Y-102248609D02*
X113318169Y-102343847D01*
X113318169Y-102343847D02*
X113318169Y-102581942D01*
X113318169Y-102581942D02*
X113270550Y-102677180D01*
X113270550Y-102677180D02*
X113222931Y-102724800D01*
X113222931Y-102724800D02*
X113127693Y-102772419D01*
X113127693Y-102772419D02*
X112841979Y-102772419D01*
X112841979Y-102772419D02*
X112746741Y-102724800D01*
X112746741Y-102724800D02*
X112699122Y-102677180D01*
X113746741Y-102677180D02*
X113794360Y-102724800D01*
X113794360Y-102724800D02*
X113746741Y-102772419D01*
X113746741Y-102772419D02*
X113699122Y-102724800D01*
X113699122Y-102724800D02*
X113746741Y-102677180D01*
X113746741Y-102677180D02*
X113746741Y-102772419D01*
X113746741Y-102153371D02*
X113794360Y-102200990D01*
X113794360Y-102200990D02*
X113746741Y-102248609D01*
X113746741Y-102248609D02*
X113699122Y-102200990D01*
X113699122Y-102200990D02*
X113746741Y-102153371D01*
X113746741Y-102153371D02*
X113746741Y-102248609D01*
X115508645Y-102772419D02*
X114937217Y-102772419D01*
X115222931Y-102772419D02*
X115222931Y-101772419D01*
X115222931Y-101772419D02*
X115127693Y-101915276D01*
X115127693Y-101915276D02*
X115032455Y-102010514D01*
X115032455Y-102010514D02*
X114937217Y-102058133D01*
X115889598Y-101867657D02*
X115937217Y-101820038D01*
X115937217Y-101820038D02*
X116032455Y-101772419D01*
X116032455Y-101772419D02*
X116270550Y-101772419D01*
X116270550Y-101772419D02*
X116365788Y-101820038D01*
X116365788Y-101820038D02*
X116413407Y-101867657D01*
X116413407Y-101867657D02*
X116461026Y-101962895D01*
X116461026Y-101962895D02*
X116461026Y-102058133D01*
X116461026Y-102058133D02*
X116413407Y-102200990D01*
X116413407Y-102200990D02*
X115841979Y-102772419D01*
X115841979Y-102772419D02*
X116461026Y-102772419D01*
X117032455Y-102200990D02*
X116937217Y-102153371D01*
X116937217Y-102153371D02*
X116889598Y-102105752D01*
X116889598Y-102105752D02*
X116841979Y-102010514D01*
X116841979Y-102010514D02*
X116841979Y-101962895D01*
X116841979Y-101962895D02*
X116889598Y-101867657D01*
X116889598Y-101867657D02*
X116937217Y-101820038D01*
X116937217Y-101820038D02*
X117032455Y-101772419D01*
X117032455Y-101772419D02*
X117222931Y-101772419D01*
X117222931Y-101772419D02*
X117318169Y-101820038D01*
X117318169Y-101820038D02*
X117365788Y-101867657D01*
X117365788Y-101867657D02*
X117413407Y-101962895D01*
X117413407Y-101962895D02*
X117413407Y-102010514D01*
X117413407Y-102010514D02*
X117365788Y-102105752D01*
X117365788Y-102105752D02*
X117318169Y-102153371D01*
X117318169Y-102153371D02*
X117222931Y-102200990D01*
X117222931Y-102200990D02*
X117032455Y-102200990D01*
X117032455Y-102200990D02*
X116937217Y-102248609D01*
X116937217Y-102248609D02*
X116889598Y-102296228D01*
X116889598Y-102296228D02*
X116841979Y-102391466D01*
X116841979Y-102391466D02*
X116841979Y-102581942D01*
X116841979Y-102581942D02*
X116889598Y-102677180D01*
X116889598Y-102677180D02*
X116937217Y-102724800D01*
X116937217Y-102724800D02*
X117032455Y-102772419D01*
X117032455Y-102772419D02*
X117222931Y-102772419D01*
X117222931Y-102772419D02*
X117318169Y-102724800D01*
X117318169Y-102724800D02*
X117365788Y-102677180D01*
X117365788Y-102677180D02*
X117413407Y-102581942D01*
X117413407Y-102581942D02*
X117413407Y-102391466D01*
X117413407Y-102391466D02*
X117365788Y-102296228D01*
X117365788Y-102296228D02*
X117318169Y-102248609D01*
X117318169Y-102248609D02*
X117222931Y-102200990D01*
X117841979Y-102772419D02*
X117841979Y-101772419D01*
X118413407Y-102772419D02*
X117984836Y-102200990D01*
X118413407Y-101772419D02*
X117841979Y-102343847D01*
D11*
X38859580Y-103066666D02*
X38907200Y-103114285D01*
X38907200Y-103114285D02*
X38954819Y-103257142D01*
X38954819Y-103257142D02*
X38954819Y-103352380D01*
X38954819Y-103352380D02*
X38907200Y-103495237D01*
X38907200Y-103495237D02*
X38811961Y-103590475D01*
X38811961Y-103590475D02*
X38716723Y-103638094D01*
X38716723Y-103638094D02*
X38526247Y-103685713D01*
X38526247Y-103685713D02*
X38383390Y-103685713D01*
X38383390Y-103685713D02*
X38192914Y-103638094D01*
X38192914Y-103638094D02*
X38097676Y-103590475D01*
X38097676Y-103590475D02*
X38002438Y-103495237D01*
X38002438Y-103495237D02*
X37954819Y-103352380D01*
X37954819Y-103352380D02*
X37954819Y-103257142D01*
X37954819Y-103257142D02*
X38002438Y-103114285D01*
X38002438Y-103114285D02*
X38050057Y-103066666D01*
X38954819Y-102114285D02*
X38954819Y-102685713D01*
X38954819Y-102399999D02*
X37954819Y-102399999D01*
X37954819Y-102399999D02*
X38097676Y-102495237D01*
X38097676Y-102495237D02*
X38192914Y-102590475D01*
X38192914Y-102590475D02*
X38240533Y-102685713D01*
X82459580Y-110366666D02*
X82507200Y-110414285D01*
X82507200Y-110414285D02*
X82554819Y-110557142D01*
X82554819Y-110557142D02*
X82554819Y-110652380D01*
X82554819Y-110652380D02*
X82507200Y-110795237D01*
X82507200Y-110795237D02*
X82411961Y-110890475D01*
X82411961Y-110890475D02*
X82316723Y-110938094D01*
X82316723Y-110938094D02*
X82126247Y-110985713D01*
X82126247Y-110985713D02*
X81983390Y-110985713D01*
X81983390Y-110985713D02*
X81792914Y-110938094D01*
X81792914Y-110938094D02*
X81697676Y-110890475D01*
X81697676Y-110890475D02*
X81602438Y-110795237D01*
X81602438Y-110795237D02*
X81554819Y-110652380D01*
X81554819Y-110652380D02*
X81554819Y-110557142D01*
X81554819Y-110557142D02*
X81602438Y-110414285D01*
X81602438Y-110414285D02*
X81650057Y-110366666D01*
X81650057Y-109985713D02*
X81602438Y-109938094D01*
X81602438Y-109938094D02*
X81554819Y-109842856D01*
X81554819Y-109842856D02*
X81554819Y-109604761D01*
X81554819Y-109604761D02*
X81602438Y-109509523D01*
X81602438Y-109509523D02*
X81650057Y-109461904D01*
X81650057Y-109461904D02*
X81745295Y-109414285D01*
X81745295Y-109414285D02*
X81840533Y-109414285D01*
X81840533Y-109414285D02*
X81983390Y-109461904D01*
X81983390Y-109461904D02*
X82554819Y-110033332D01*
X82554819Y-110033332D02*
X82554819Y-109414285D01*
X40654819Y-119961904D02*
X41464342Y-119961904D01*
X41464342Y-119961904D02*
X41559580Y-119914285D01*
X41559580Y-119914285D02*
X41607200Y-119866666D01*
X41607200Y-119866666D02*
X41654819Y-119771428D01*
X41654819Y-119771428D02*
X41654819Y-119580952D01*
X41654819Y-119580952D02*
X41607200Y-119485714D01*
X41607200Y-119485714D02*
X41559580Y-119438095D01*
X41559580Y-119438095D02*
X41464342Y-119390476D01*
X41464342Y-119390476D02*
X40654819Y-119390476D01*
X40654819Y-119009523D02*
X40654819Y-118390476D01*
X40654819Y-118390476D02*
X41035771Y-118723809D01*
X41035771Y-118723809D02*
X41035771Y-118580952D01*
X41035771Y-118580952D02*
X41083390Y-118485714D01*
X41083390Y-118485714D02*
X41131009Y-118438095D01*
X41131009Y-118438095D02*
X41226247Y-118390476D01*
X41226247Y-118390476D02*
X41464342Y-118390476D01*
X41464342Y-118390476D02*
X41559580Y-118438095D01*
X41559580Y-118438095D02*
X41607200Y-118485714D01*
X41607200Y-118485714D02*
X41654819Y-118580952D01*
X41654819Y-118580952D02*
X41654819Y-118866666D01*
X41654819Y-118866666D02*
X41607200Y-118961904D01*
X41607200Y-118961904D02*
X41559580Y-119009523D01*
X85604819Y-128434285D02*
X84604819Y-128434285D01*
X85081009Y-128434285D02*
X85081009Y-127862857D01*
X85604819Y-127862857D02*
X84604819Y-127862857D01*
X85604819Y-127386666D02*
X84604819Y-127386666D01*
X84604819Y-127386666D02*
X85319104Y-127053333D01*
X85319104Y-127053333D02*
X84604819Y-126720000D01*
X84604819Y-126720000D02*
X85604819Y-126720000D01*
X84604819Y-125815238D02*
X84604819Y-126005714D01*
X84604819Y-126005714D02*
X84652438Y-126100952D01*
X84652438Y-126100952D02*
X84700057Y-126148571D01*
X84700057Y-126148571D02*
X84842914Y-126243809D01*
X84842914Y-126243809D02*
X85033390Y-126291428D01*
X85033390Y-126291428D02*
X85414342Y-126291428D01*
X85414342Y-126291428D02*
X85509580Y-126243809D01*
X85509580Y-126243809D02*
X85557200Y-126196190D01*
X85557200Y-126196190D02*
X85604819Y-126100952D01*
X85604819Y-126100952D02*
X85604819Y-125910476D01*
X85604819Y-125910476D02*
X85557200Y-125815238D01*
X85557200Y-125815238D02*
X85509580Y-125767619D01*
X85509580Y-125767619D02*
X85414342Y-125720000D01*
X85414342Y-125720000D02*
X85176247Y-125720000D01*
X85176247Y-125720000D02*
X85081009Y-125767619D01*
X85081009Y-125767619D02*
X85033390Y-125815238D01*
X85033390Y-125815238D02*
X84985771Y-125910476D01*
X84985771Y-125910476D02*
X84985771Y-126100952D01*
X84985771Y-126100952D02*
X85033390Y-126196190D01*
X85033390Y-126196190D02*
X85081009Y-126243809D01*
X85081009Y-126243809D02*
X85176247Y-126291428D01*
X84700057Y-125339047D02*
X84652438Y-125291428D01*
X84652438Y-125291428D02*
X84604819Y-125196190D01*
X84604819Y-125196190D02*
X84604819Y-124958095D01*
X84604819Y-124958095D02*
X84652438Y-124862857D01*
X84652438Y-124862857D02*
X84700057Y-124815238D01*
X84700057Y-124815238D02*
X84795295Y-124767619D01*
X84795295Y-124767619D02*
X84890533Y-124767619D01*
X84890533Y-124767619D02*
X85033390Y-124815238D01*
X85033390Y-124815238D02*
X85604819Y-125386666D01*
X85604819Y-125386666D02*
X85604819Y-124767619D01*
X85033390Y-124196190D02*
X84985771Y-124291428D01*
X84985771Y-124291428D02*
X84938152Y-124339047D01*
X84938152Y-124339047D02*
X84842914Y-124386666D01*
X84842914Y-124386666D02*
X84795295Y-124386666D01*
X84795295Y-124386666D02*
X84700057Y-124339047D01*
X84700057Y-124339047D02*
X84652438Y-124291428D01*
X84652438Y-124291428D02*
X84604819Y-124196190D01*
X84604819Y-124196190D02*
X84604819Y-124005714D01*
X84604819Y-124005714D02*
X84652438Y-123910476D01*
X84652438Y-123910476D02*
X84700057Y-123862857D01*
X84700057Y-123862857D02*
X84795295Y-123815238D01*
X84795295Y-123815238D02*
X84842914Y-123815238D01*
X84842914Y-123815238D02*
X84938152Y-123862857D01*
X84938152Y-123862857D02*
X84985771Y-123910476D01*
X84985771Y-123910476D02*
X85033390Y-124005714D01*
X85033390Y-124005714D02*
X85033390Y-124196190D01*
X85033390Y-124196190D02*
X85081009Y-124291428D01*
X85081009Y-124291428D02*
X85128628Y-124339047D01*
X85128628Y-124339047D02*
X85223866Y-124386666D01*
X85223866Y-124386666D02*
X85414342Y-124386666D01*
X85414342Y-124386666D02*
X85509580Y-124339047D01*
X85509580Y-124339047D02*
X85557200Y-124291428D01*
X85557200Y-124291428D02*
X85604819Y-124196190D01*
X85604819Y-124196190D02*
X85604819Y-124005714D01*
X85604819Y-124005714D02*
X85557200Y-123910476D01*
X85557200Y-123910476D02*
X85509580Y-123862857D01*
X85509580Y-123862857D02*
X85414342Y-123815238D01*
X85414342Y-123815238D02*
X85223866Y-123815238D01*
X85223866Y-123815238D02*
X85128628Y-123862857D01*
X85128628Y-123862857D02*
X85081009Y-123910476D01*
X85081009Y-123910476D02*
X85033390Y-124005714D01*
X85604819Y-122862857D02*
X85604819Y-123434285D01*
X85604819Y-123148571D02*
X84604819Y-123148571D01*
X84604819Y-123148571D02*
X84747676Y-123243809D01*
X84747676Y-123243809D02*
X84842914Y-123339047D01*
X84842914Y-123339047D02*
X84890533Y-123434285D01*
X84700057Y-122481904D02*
X84652438Y-122434285D01*
X84652438Y-122434285D02*
X84604819Y-122339047D01*
X84604819Y-122339047D02*
X84604819Y-122100952D01*
X84604819Y-122100952D02*
X84652438Y-122005714D01*
X84652438Y-122005714D02*
X84700057Y-121958095D01*
X84700057Y-121958095D02*
X84795295Y-121910476D01*
X84795295Y-121910476D02*
X84890533Y-121910476D01*
X84890533Y-121910476D02*
X85033390Y-121958095D01*
X85033390Y-121958095D02*
X85604819Y-122529523D01*
X85604819Y-122529523D02*
X85604819Y-121910476D01*
X85033390Y-121339047D02*
X84985771Y-121434285D01*
X84985771Y-121434285D02*
X84938152Y-121481904D01*
X84938152Y-121481904D02*
X84842914Y-121529523D01*
X84842914Y-121529523D02*
X84795295Y-121529523D01*
X84795295Y-121529523D02*
X84700057Y-121481904D01*
X84700057Y-121481904D02*
X84652438Y-121434285D01*
X84652438Y-121434285D02*
X84604819Y-121339047D01*
X84604819Y-121339047D02*
X84604819Y-121148571D01*
X84604819Y-121148571D02*
X84652438Y-121053333D01*
X84652438Y-121053333D02*
X84700057Y-121005714D01*
X84700057Y-121005714D02*
X84795295Y-120958095D01*
X84795295Y-120958095D02*
X84842914Y-120958095D01*
X84842914Y-120958095D02*
X84938152Y-121005714D01*
X84938152Y-121005714D02*
X84985771Y-121053333D01*
X84985771Y-121053333D02*
X85033390Y-121148571D01*
X85033390Y-121148571D02*
X85033390Y-121339047D01*
X85033390Y-121339047D02*
X85081009Y-121434285D01*
X85081009Y-121434285D02*
X85128628Y-121481904D01*
X85128628Y-121481904D02*
X85223866Y-121529523D01*
X85223866Y-121529523D02*
X85414342Y-121529523D01*
X85414342Y-121529523D02*
X85509580Y-121481904D01*
X85509580Y-121481904D02*
X85557200Y-121434285D01*
X85557200Y-121434285D02*
X85604819Y-121339047D01*
X85604819Y-121339047D02*
X85604819Y-121148571D01*
X85604819Y-121148571D02*
X85557200Y-121053333D01*
X85557200Y-121053333D02*
X85509580Y-121005714D01*
X85509580Y-121005714D02*
X85414342Y-120958095D01*
X85414342Y-120958095D02*
X85223866Y-120958095D01*
X85223866Y-120958095D02*
X85128628Y-121005714D01*
X85128628Y-121005714D02*
X85081009Y-121053333D01*
X85081009Y-121053333D02*
X85033390Y-121148571D01*
X40654819Y-108861904D02*
X41464342Y-108861904D01*
X41464342Y-108861904D02*
X41559580Y-108814285D01*
X41559580Y-108814285D02*
X41607200Y-108766666D01*
X41607200Y-108766666D02*
X41654819Y-108671428D01*
X41654819Y-108671428D02*
X41654819Y-108480952D01*
X41654819Y-108480952D02*
X41607200Y-108385714D01*
X41607200Y-108385714D02*
X41559580Y-108338095D01*
X41559580Y-108338095D02*
X41464342Y-108290476D01*
X41464342Y-108290476D02*
X40654819Y-108290476D01*
X41654819Y-107290476D02*
X41654819Y-107861904D01*
X41654819Y-107576190D02*
X40654819Y-107576190D01*
X40654819Y-107576190D02*
X40797676Y-107671428D01*
X40797676Y-107671428D02*
X40892914Y-107766666D01*
X40892914Y-107766666D02*
X40940533Y-107861904D01*
X79620057Y-105585475D02*
X79572438Y-105537856D01*
X79572438Y-105537856D02*
X79524819Y-105442618D01*
X79524819Y-105442618D02*
X79524819Y-105204523D01*
X79524819Y-105204523D02*
X79572438Y-105109285D01*
X79572438Y-105109285D02*
X79620057Y-105061666D01*
X79620057Y-105061666D02*
X79715295Y-105014047D01*
X79715295Y-105014047D02*
X79810533Y-105014047D01*
X79810533Y-105014047D02*
X79953390Y-105061666D01*
X79953390Y-105061666D02*
X80524819Y-105633094D01*
X80524819Y-105633094D02*
X80524819Y-105014047D01*
X79524819Y-104680713D02*
X79524819Y-104014047D01*
X79524819Y-104014047D02*
X80524819Y-104442618D01*
X80429580Y-103061666D02*
X80477200Y-103109285D01*
X80477200Y-103109285D02*
X80524819Y-103252142D01*
X80524819Y-103252142D02*
X80524819Y-103347380D01*
X80524819Y-103347380D02*
X80477200Y-103490237D01*
X80477200Y-103490237D02*
X80381961Y-103585475D01*
X80381961Y-103585475D02*
X80286723Y-103633094D01*
X80286723Y-103633094D02*
X80096247Y-103680713D01*
X80096247Y-103680713D02*
X79953390Y-103680713D01*
X79953390Y-103680713D02*
X79762914Y-103633094D01*
X79762914Y-103633094D02*
X79667676Y-103585475D01*
X79667676Y-103585475D02*
X79572438Y-103490237D01*
X79572438Y-103490237D02*
X79524819Y-103347380D01*
X79524819Y-103347380D02*
X79524819Y-103252142D01*
X79524819Y-103252142D02*
X79572438Y-103109285D01*
X79572438Y-103109285D02*
X79620057Y-103061666D01*
X79620057Y-102680713D02*
X79572438Y-102633094D01*
X79572438Y-102633094D02*
X79524819Y-102537856D01*
X79524819Y-102537856D02*
X79524819Y-102299761D01*
X79524819Y-102299761D02*
X79572438Y-102204523D01*
X79572438Y-102204523D02*
X79620057Y-102156904D01*
X79620057Y-102156904D02*
X79715295Y-102109285D01*
X79715295Y-102109285D02*
X79810533Y-102109285D01*
X79810533Y-102109285D02*
X79953390Y-102156904D01*
X79953390Y-102156904D02*
X80524819Y-102728332D01*
X80524819Y-102728332D02*
X80524819Y-102109285D01*
X79524819Y-101204523D02*
X79524819Y-101680713D01*
X79524819Y-101680713D02*
X80001009Y-101728332D01*
X80001009Y-101728332D02*
X79953390Y-101680713D01*
X79953390Y-101680713D02*
X79905771Y-101585475D01*
X79905771Y-101585475D02*
X79905771Y-101347380D01*
X79905771Y-101347380D02*
X79953390Y-101252142D01*
X79953390Y-101252142D02*
X80001009Y-101204523D01*
X80001009Y-101204523D02*
X80096247Y-101156904D01*
X80096247Y-101156904D02*
X80334342Y-101156904D01*
X80334342Y-101156904D02*
X80429580Y-101204523D01*
X80429580Y-101204523D02*
X80477200Y-101252142D01*
X80477200Y-101252142D02*
X80524819Y-101347380D01*
X80524819Y-101347380D02*
X80524819Y-101585475D01*
X80524819Y-101585475D02*
X80477200Y-101680713D01*
X80477200Y-101680713D02*
X80429580Y-101728332D01*
X79524819Y-100299761D02*
X79524819Y-100490237D01*
X79524819Y-100490237D02*
X79572438Y-100585475D01*
X79572438Y-100585475D02*
X79620057Y-100633094D01*
X79620057Y-100633094D02*
X79762914Y-100728332D01*
X79762914Y-100728332D02*
X79953390Y-100775951D01*
X79953390Y-100775951D02*
X80334342Y-100775951D01*
X80334342Y-100775951D02*
X80429580Y-100728332D01*
X80429580Y-100728332D02*
X80477200Y-100680713D01*
X80477200Y-100680713D02*
X80524819Y-100585475D01*
X80524819Y-100585475D02*
X80524819Y-100394999D01*
X80524819Y-100394999D02*
X80477200Y-100299761D01*
X80477200Y-100299761D02*
X80429580Y-100252142D01*
X80429580Y-100252142D02*
X80334342Y-100204523D01*
X80334342Y-100204523D02*
X80096247Y-100204523D01*
X80096247Y-100204523D02*
X80001009Y-100252142D01*
X80001009Y-100252142D02*
X79953390Y-100299761D01*
X79953390Y-100299761D02*
X79905771Y-100394999D01*
X79905771Y-100394999D02*
X79905771Y-100585475D01*
X79905771Y-100585475D02*
X79953390Y-100680713D01*
X79953390Y-100680713D02*
X80001009Y-100728332D01*
X80001009Y-100728332D02*
X80096247Y-100775951D01*
X88039580Y-124991666D02*
X88087200Y-125039285D01*
X88087200Y-125039285D02*
X88134819Y-125182142D01*
X88134819Y-125182142D02*
X88134819Y-125277380D01*
X88134819Y-125277380D02*
X88087200Y-125420237D01*
X88087200Y-125420237D02*
X87991961Y-125515475D01*
X87991961Y-125515475D02*
X87896723Y-125563094D01*
X87896723Y-125563094D02*
X87706247Y-125610713D01*
X87706247Y-125610713D02*
X87563390Y-125610713D01*
X87563390Y-125610713D02*
X87372914Y-125563094D01*
X87372914Y-125563094D02*
X87277676Y-125515475D01*
X87277676Y-125515475D02*
X87182438Y-125420237D01*
X87182438Y-125420237D02*
X87134819Y-125277380D01*
X87134819Y-125277380D02*
X87134819Y-125182142D01*
X87134819Y-125182142D02*
X87182438Y-125039285D01*
X87182438Y-125039285D02*
X87230057Y-124991666D01*
X87468152Y-124134523D02*
X88134819Y-124134523D01*
X87087200Y-124372618D02*
X87801485Y-124610713D01*
X87801485Y-124610713D02*
X87801485Y-123991666D01*
X38859580Y-124891666D02*
X38907200Y-124939285D01*
X38907200Y-124939285D02*
X38954819Y-125082142D01*
X38954819Y-125082142D02*
X38954819Y-125177380D01*
X38954819Y-125177380D02*
X38907200Y-125320237D01*
X38907200Y-125320237D02*
X38811961Y-125415475D01*
X38811961Y-125415475D02*
X38716723Y-125463094D01*
X38716723Y-125463094D02*
X38526247Y-125510713D01*
X38526247Y-125510713D02*
X38383390Y-125510713D01*
X38383390Y-125510713D02*
X38192914Y-125463094D01*
X38192914Y-125463094D02*
X38097676Y-125415475D01*
X38097676Y-125415475D02*
X38002438Y-125320237D01*
X38002438Y-125320237D02*
X37954819Y-125177380D01*
X37954819Y-125177380D02*
X37954819Y-125082142D01*
X37954819Y-125082142D02*
X38002438Y-124939285D01*
X38002438Y-124939285D02*
X38050057Y-124891666D01*
X37954819Y-124558332D02*
X37954819Y-123939285D01*
X37954819Y-123939285D02*
X38335771Y-124272618D01*
X38335771Y-124272618D02*
X38335771Y-124129761D01*
X38335771Y-124129761D02*
X38383390Y-124034523D01*
X38383390Y-124034523D02*
X38431009Y-123986904D01*
X38431009Y-123986904D02*
X38526247Y-123939285D01*
X38526247Y-123939285D02*
X38764342Y-123939285D01*
X38764342Y-123939285D02*
X38859580Y-123986904D01*
X38859580Y-123986904D02*
X38907200Y-124034523D01*
X38907200Y-124034523D02*
X38954819Y-124129761D01*
X38954819Y-124129761D02*
X38954819Y-124415475D01*
X38954819Y-124415475D02*
X38907200Y-124510713D01*
X38907200Y-124510713D02*
X38859580Y-124558332D01*
X109184819Y-96433333D02*
X109899104Y-96433333D01*
X109899104Y-96433333D02*
X110041961Y-96480952D01*
X110041961Y-96480952D02*
X110137200Y-96576190D01*
X110137200Y-96576190D02*
X110184819Y-96719047D01*
X110184819Y-96719047D02*
X110184819Y-96814285D01*
X110184819Y-95957142D02*
X109184819Y-95957142D01*
X109184819Y-95957142D02*
X109184819Y-95576190D01*
X109184819Y-95576190D02*
X109232438Y-95480952D01*
X109232438Y-95480952D02*
X109280057Y-95433333D01*
X109280057Y-95433333D02*
X109375295Y-95385714D01*
X109375295Y-95385714D02*
X109518152Y-95385714D01*
X109518152Y-95385714D02*
X109613390Y-95433333D01*
X109613390Y-95433333D02*
X109661009Y-95480952D01*
X109661009Y-95480952D02*
X109708628Y-95576190D01*
X109708628Y-95576190D02*
X109708628Y-95957142D01*
X109280057Y-95004761D02*
X109232438Y-94957142D01*
X109232438Y-94957142D02*
X109184819Y-94861904D01*
X109184819Y-94861904D02*
X109184819Y-94623809D01*
X109184819Y-94623809D02*
X109232438Y-94528571D01*
X109232438Y-94528571D02*
X109280057Y-94480952D01*
X109280057Y-94480952D02*
X109375295Y-94433333D01*
X109375295Y-94433333D02*
X109470533Y-94433333D01*
X109470533Y-94433333D02*
X109613390Y-94480952D01*
X109613390Y-94480952D02*
X110184819Y-95052380D01*
X110184819Y-95052380D02*
X110184819Y-94433333D01*
X111880952Y-98954819D02*
X111309524Y-98954819D01*
X111595238Y-98954819D02*
X111595238Y-97954819D01*
X111595238Y-97954819D02*
X111500000Y-98097676D01*
X111500000Y-98097676D02*
X111404762Y-98192914D01*
X111404762Y-98192914D02*
X111309524Y-98240533D01*
X112261905Y-98050057D02*
X112309524Y-98002438D01*
X112309524Y-98002438D02*
X112404762Y-97954819D01*
X112404762Y-97954819D02*
X112642857Y-97954819D01*
X112642857Y-97954819D02*
X112738095Y-98002438D01*
X112738095Y-98002438D02*
X112785714Y-98050057D01*
X112785714Y-98050057D02*
X112833333Y-98145295D01*
X112833333Y-98145295D02*
X112833333Y-98240533D01*
X112833333Y-98240533D02*
X112785714Y-98383390D01*
X112785714Y-98383390D02*
X112214286Y-98954819D01*
X112214286Y-98954819D02*
X112833333Y-98954819D01*
X113404762Y-98383390D02*
X113309524Y-98335771D01*
X113309524Y-98335771D02*
X113261905Y-98288152D01*
X113261905Y-98288152D02*
X113214286Y-98192914D01*
X113214286Y-98192914D02*
X113214286Y-98145295D01*
X113214286Y-98145295D02*
X113261905Y-98050057D01*
X113261905Y-98050057D02*
X113309524Y-98002438D01*
X113309524Y-98002438D02*
X113404762Y-97954819D01*
X113404762Y-97954819D02*
X113595238Y-97954819D01*
X113595238Y-97954819D02*
X113690476Y-98002438D01*
X113690476Y-98002438D02*
X113738095Y-98050057D01*
X113738095Y-98050057D02*
X113785714Y-98145295D01*
X113785714Y-98145295D02*
X113785714Y-98192914D01*
X113785714Y-98192914D02*
X113738095Y-98288152D01*
X113738095Y-98288152D02*
X113690476Y-98335771D01*
X113690476Y-98335771D02*
X113595238Y-98383390D01*
X113595238Y-98383390D02*
X113404762Y-98383390D01*
X113404762Y-98383390D02*
X113309524Y-98431009D01*
X113309524Y-98431009D02*
X113261905Y-98478628D01*
X113261905Y-98478628D02*
X113214286Y-98573866D01*
X113214286Y-98573866D02*
X113214286Y-98764342D01*
X113214286Y-98764342D02*
X113261905Y-98859580D01*
X113261905Y-98859580D02*
X113309524Y-98907200D01*
X113309524Y-98907200D02*
X113404762Y-98954819D01*
X113404762Y-98954819D02*
X113595238Y-98954819D01*
X113595238Y-98954819D02*
X113690476Y-98907200D01*
X113690476Y-98907200D02*
X113738095Y-98859580D01*
X113738095Y-98859580D02*
X113785714Y-98764342D01*
X113785714Y-98764342D02*
X113785714Y-98573866D01*
X113785714Y-98573866D02*
X113738095Y-98478628D01*
X113738095Y-98478628D02*
X113690476Y-98431009D01*
X113690476Y-98431009D02*
X113595238Y-98383390D01*
X114928571Y-97907200D02*
X114071429Y-99192914D01*
X115738095Y-97954819D02*
X115261905Y-97954819D01*
X115261905Y-97954819D02*
X115214286Y-98431009D01*
X115214286Y-98431009D02*
X115261905Y-98383390D01*
X115261905Y-98383390D02*
X115357143Y-98335771D01*
X115357143Y-98335771D02*
X115595238Y-98335771D01*
X115595238Y-98335771D02*
X115690476Y-98383390D01*
X115690476Y-98383390D02*
X115738095Y-98431009D01*
X115738095Y-98431009D02*
X115785714Y-98526247D01*
X115785714Y-98526247D02*
X115785714Y-98764342D01*
X115785714Y-98764342D02*
X115738095Y-98859580D01*
X115738095Y-98859580D02*
X115690476Y-98907200D01*
X115690476Y-98907200D02*
X115595238Y-98954819D01*
X115595238Y-98954819D02*
X115357143Y-98954819D01*
X115357143Y-98954819D02*
X115261905Y-98907200D01*
X115261905Y-98907200D02*
X115214286Y-98859580D01*
X116738095Y-98954819D02*
X116166667Y-98954819D01*
X116452381Y-98954819D02*
X116452381Y-97954819D01*
X116452381Y-97954819D02*
X116357143Y-98097676D01*
X116357143Y-98097676D02*
X116261905Y-98192914D01*
X116261905Y-98192914D02*
X116166667Y-98240533D01*
X117119048Y-98050057D02*
X117166667Y-98002438D01*
X117166667Y-98002438D02*
X117261905Y-97954819D01*
X117261905Y-97954819D02*
X117500000Y-97954819D01*
X117500000Y-97954819D02*
X117595238Y-98002438D01*
X117595238Y-98002438D02*
X117642857Y-98050057D01*
X117642857Y-98050057D02*
X117690476Y-98145295D01*
X117690476Y-98145295D02*
X117690476Y-98240533D01*
X117690476Y-98240533D02*
X117642857Y-98383390D01*
X117642857Y-98383390D02*
X117071429Y-98954819D01*
X117071429Y-98954819D02*
X117690476Y-98954819D01*
X86744819Y-110951904D02*
X87554342Y-110951904D01*
X87554342Y-110951904D02*
X87649580Y-110904285D01*
X87649580Y-110904285D02*
X87697200Y-110856666D01*
X87697200Y-110856666D02*
X87744819Y-110761428D01*
X87744819Y-110761428D02*
X87744819Y-110570952D01*
X87744819Y-110570952D02*
X87697200Y-110475714D01*
X87697200Y-110475714D02*
X87649580Y-110428095D01*
X87649580Y-110428095D02*
X87554342Y-110380476D01*
X87554342Y-110380476D02*
X86744819Y-110380476D01*
X86840057Y-109951904D02*
X86792438Y-109904285D01*
X86792438Y-109904285D02*
X86744819Y-109809047D01*
X86744819Y-109809047D02*
X86744819Y-109570952D01*
X86744819Y-109570952D02*
X86792438Y-109475714D01*
X86792438Y-109475714D02*
X86840057Y-109428095D01*
X86840057Y-109428095D02*
X86935295Y-109380476D01*
X86935295Y-109380476D02*
X87030533Y-109380476D01*
X87030533Y-109380476D02*
X87173390Y-109428095D01*
X87173390Y-109428095D02*
X87744819Y-109999523D01*
X87744819Y-109999523D02*
X87744819Y-109380476D01*
X119392438Y-112618571D02*
X119344819Y-112713809D01*
X119344819Y-112713809D02*
X119344819Y-112856666D01*
X119344819Y-112856666D02*
X119392438Y-112999523D01*
X119392438Y-112999523D02*
X119487676Y-113094761D01*
X119487676Y-113094761D02*
X119582914Y-113142380D01*
X119582914Y-113142380D02*
X119773390Y-113189999D01*
X119773390Y-113189999D02*
X119916247Y-113189999D01*
X119916247Y-113189999D02*
X120106723Y-113142380D01*
X120106723Y-113142380D02*
X120201961Y-113094761D01*
X120201961Y-113094761D02*
X120297200Y-112999523D01*
X120297200Y-112999523D02*
X120344819Y-112856666D01*
X120344819Y-112856666D02*
X120344819Y-112761428D01*
X120344819Y-112761428D02*
X120297200Y-112618571D01*
X120297200Y-112618571D02*
X120249580Y-112570952D01*
X120249580Y-112570952D02*
X119916247Y-112570952D01*
X119916247Y-112570952D02*
X119916247Y-112761428D01*
X120059104Y-112189999D02*
X120059104Y-111713809D01*
X120344819Y-112285237D02*
X119344819Y-111951904D01*
X119344819Y-111951904D02*
X120344819Y-111618571D01*
X120344819Y-110809047D02*
X120344819Y-111285237D01*
X120344819Y-111285237D02*
X119344819Y-111285237D01*
X119440057Y-110523332D02*
X119392438Y-110475713D01*
X119392438Y-110475713D02*
X119344819Y-110380475D01*
X119344819Y-110380475D02*
X119344819Y-110142380D01*
X119344819Y-110142380D02*
X119392438Y-110047142D01*
X119392438Y-110047142D02*
X119440057Y-109999523D01*
X119440057Y-109999523D02*
X119535295Y-109951904D01*
X119535295Y-109951904D02*
X119630533Y-109951904D01*
X119630533Y-109951904D02*
X119773390Y-109999523D01*
X119773390Y-109999523D02*
X120344819Y-110570951D01*
X120344819Y-110570951D02*
X120344819Y-109951904D01*
X119344819Y-109332856D02*
X119344819Y-109237618D01*
X119344819Y-109237618D02*
X119392438Y-109142380D01*
X119392438Y-109142380D02*
X119440057Y-109094761D01*
X119440057Y-109094761D02*
X119535295Y-109047142D01*
X119535295Y-109047142D02*
X119725771Y-108999523D01*
X119725771Y-108999523D02*
X119963866Y-108999523D01*
X119963866Y-108999523D02*
X120154342Y-109047142D01*
X120154342Y-109047142D02*
X120249580Y-109094761D01*
X120249580Y-109094761D02*
X120297200Y-109142380D01*
X120297200Y-109142380D02*
X120344819Y-109237618D01*
X120344819Y-109237618D02*
X120344819Y-109332856D01*
X120344819Y-109332856D02*
X120297200Y-109428094D01*
X120297200Y-109428094D02*
X120249580Y-109475713D01*
X120249580Y-109475713D02*
X120154342Y-109523332D01*
X120154342Y-109523332D02*
X119963866Y-109570951D01*
X119963866Y-109570951D02*
X119725771Y-109570951D01*
X119725771Y-109570951D02*
X119535295Y-109523332D01*
X119535295Y-109523332D02*
X119440057Y-109475713D01*
X119440057Y-109475713D02*
X119392438Y-109428094D01*
X119392438Y-109428094D02*
X119344819Y-109332856D01*
X119344819Y-108713808D02*
X120344819Y-108380475D01*
X120344819Y-108380475D02*
X119344819Y-108047142D01*
X119773390Y-107570951D02*
X119725771Y-107666189D01*
X119725771Y-107666189D02*
X119678152Y-107713808D01*
X119678152Y-107713808D02*
X119582914Y-107761427D01*
X119582914Y-107761427D02*
X119535295Y-107761427D01*
X119535295Y-107761427D02*
X119440057Y-107713808D01*
X119440057Y-107713808D02*
X119392438Y-107666189D01*
X119392438Y-107666189D02*
X119344819Y-107570951D01*
X119344819Y-107570951D02*
X119344819Y-107380475D01*
X119344819Y-107380475D02*
X119392438Y-107285237D01*
X119392438Y-107285237D02*
X119440057Y-107237618D01*
X119440057Y-107237618D02*
X119535295Y-107189999D01*
X119535295Y-107189999D02*
X119582914Y-107189999D01*
X119582914Y-107189999D02*
X119678152Y-107237618D01*
X119678152Y-107237618D02*
X119725771Y-107285237D01*
X119725771Y-107285237D02*
X119773390Y-107380475D01*
X119773390Y-107380475D02*
X119773390Y-107570951D01*
X119773390Y-107570951D02*
X119821009Y-107666189D01*
X119821009Y-107666189D02*
X119868628Y-107713808D01*
X119868628Y-107713808D02*
X119963866Y-107761427D01*
X119963866Y-107761427D02*
X120154342Y-107761427D01*
X120154342Y-107761427D02*
X120249580Y-107713808D01*
X120249580Y-107713808D02*
X120297200Y-107666189D01*
X120297200Y-107666189D02*
X120344819Y-107570951D01*
X120344819Y-107570951D02*
X120344819Y-107380475D01*
X120344819Y-107380475D02*
X120297200Y-107285237D01*
X120297200Y-107285237D02*
X120249580Y-107237618D01*
X120249580Y-107237618D02*
X120154342Y-107189999D01*
X120154342Y-107189999D02*
X119963866Y-107189999D01*
X119963866Y-107189999D02*
X119868628Y-107237618D01*
X119868628Y-107237618D02*
X119821009Y-107285237D01*
X119821009Y-107285237D02*
X119773390Y-107380475D01*
X38966666Y-129524819D02*
X38966666Y-130239104D01*
X38966666Y-130239104D02*
X38919047Y-130381961D01*
X38919047Y-130381961D02*
X38823809Y-130477200D01*
X38823809Y-130477200D02*
X38680952Y-130524819D01*
X38680952Y-130524819D02*
X38585714Y-130524819D01*
X39442857Y-130524819D02*
X39442857Y-129524819D01*
X39442857Y-129524819D02*
X39823809Y-129524819D01*
X39823809Y-129524819D02*
X39919047Y-129572438D01*
X39919047Y-129572438D02*
X39966666Y-129620057D01*
X39966666Y-129620057D02*
X40014285Y-129715295D01*
X40014285Y-129715295D02*
X40014285Y-129858152D01*
X40014285Y-129858152D02*
X39966666Y-129953390D01*
X39966666Y-129953390D02*
X39919047Y-130001009D01*
X39919047Y-130001009D02*
X39823809Y-130048628D01*
X39823809Y-130048628D02*
X39442857Y-130048628D01*
X40966666Y-130524819D02*
X40395238Y-130524819D01*
X40680952Y-130524819D02*
X40680952Y-129524819D01*
X40680952Y-129524819D02*
X40585714Y-129667676D01*
X40585714Y-129667676D02*
X40490476Y-129762914D01*
X40490476Y-129762914D02*
X40395238Y-129810533D01*
X42223807Y-136054819D02*
X42223807Y-135054819D01*
X42223807Y-135054819D02*
X42604759Y-135054819D01*
X42604759Y-135054819D02*
X42699997Y-135102438D01*
X42699997Y-135102438D02*
X42747616Y-135150057D01*
X42747616Y-135150057D02*
X42795235Y-135245295D01*
X42795235Y-135245295D02*
X42795235Y-135388152D01*
X42795235Y-135388152D02*
X42747616Y-135483390D01*
X42747616Y-135483390D02*
X42699997Y-135531009D01*
X42699997Y-135531009D02*
X42604759Y-135578628D01*
X42604759Y-135578628D02*
X42223807Y-135578628D01*
X43366664Y-136054819D02*
X43271426Y-136007200D01*
X43271426Y-136007200D02*
X43223807Y-135911961D01*
X43223807Y-135911961D02*
X43223807Y-135054819D01*
X44176188Y-136054819D02*
X44176188Y-135531009D01*
X44176188Y-135531009D02*
X44128569Y-135435771D01*
X44128569Y-135435771D02*
X44033331Y-135388152D01*
X44033331Y-135388152D02*
X43842855Y-135388152D01*
X43842855Y-135388152D02*
X43747617Y-135435771D01*
X44176188Y-136007200D02*
X44080950Y-136054819D01*
X44080950Y-136054819D02*
X43842855Y-136054819D01*
X43842855Y-136054819D02*
X43747617Y-136007200D01*
X43747617Y-136007200D02*
X43699998Y-135911961D01*
X43699998Y-135911961D02*
X43699998Y-135816723D01*
X43699998Y-135816723D02*
X43747617Y-135721485D01*
X43747617Y-135721485D02*
X43842855Y-135673866D01*
X43842855Y-135673866D02*
X44080950Y-135673866D01*
X44080950Y-135673866D02*
X44176188Y-135626247D01*
X45080950Y-136007200D02*
X44985712Y-136054819D01*
X44985712Y-136054819D02*
X44795236Y-136054819D01*
X44795236Y-136054819D02*
X44699998Y-136007200D01*
X44699998Y-136007200D02*
X44652379Y-135959580D01*
X44652379Y-135959580D02*
X44604760Y-135864342D01*
X44604760Y-135864342D02*
X44604760Y-135578628D01*
X44604760Y-135578628D02*
X44652379Y-135483390D01*
X44652379Y-135483390D02*
X44699998Y-135435771D01*
X44699998Y-135435771D02*
X44795236Y-135388152D01*
X44795236Y-135388152D02*
X44985712Y-135388152D01*
X44985712Y-135388152D02*
X45080950Y-135435771D01*
X45890474Y-136007200D02*
X45795236Y-136054819D01*
X45795236Y-136054819D02*
X45604760Y-136054819D01*
X45604760Y-136054819D02*
X45509522Y-136007200D01*
X45509522Y-136007200D02*
X45461903Y-135911961D01*
X45461903Y-135911961D02*
X45461903Y-135531009D01*
X45461903Y-135531009D02*
X45509522Y-135435771D01*
X45509522Y-135435771D02*
X45604760Y-135388152D01*
X45604760Y-135388152D02*
X45795236Y-135388152D01*
X45795236Y-135388152D02*
X45890474Y-135435771D01*
X45890474Y-135435771D02*
X45938093Y-135531009D01*
X45938093Y-135531009D02*
X45938093Y-135626247D01*
X45938093Y-135626247D02*
X45461903Y-135721485D01*
X47414284Y-135054819D02*
X47414284Y-135769104D01*
X47414284Y-135769104D02*
X47366665Y-135911961D01*
X47366665Y-135911961D02*
X47271427Y-136007200D01*
X47271427Y-136007200D02*
X47128570Y-136054819D01*
X47128570Y-136054819D02*
X47033332Y-136054819D01*
X47890475Y-136054819D02*
X47890475Y-135054819D01*
X47890475Y-135054819D02*
X48271427Y-135054819D01*
X48271427Y-135054819D02*
X48366665Y-135102438D01*
X48366665Y-135102438D02*
X48414284Y-135150057D01*
X48414284Y-135150057D02*
X48461903Y-135245295D01*
X48461903Y-135245295D02*
X48461903Y-135388152D01*
X48461903Y-135388152D02*
X48414284Y-135483390D01*
X48414284Y-135483390D02*
X48366665Y-135531009D01*
X48366665Y-135531009D02*
X48271427Y-135578628D01*
X48271427Y-135578628D02*
X47890475Y-135578628D01*
X49414284Y-136054819D02*
X48842856Y-136054819D01*
X49128570Y-136054819D02*
X49128570Y-135054819D01*
X49128570Y-135054819D02*
X49033332Y-135197676D01*
X49033332Y-135197676D02*
X48938094Y-135292914D01*
X48938094Y-135292914D02*
X48842856Y-135340533D01*
X50890475Y-135054819D02*
X50890475Y-135769104D01*
X50890475Y-135769104D02*
X50842856Y-135911961D01*
X50842856Y-135911961D02*
X50747618Y-136007200D01*
X50747618Y-136007200D02*
X50604761Y-136054819D01*
X50604761Y-136054819D02*
X50509523Y-136054819D01*
X51795237Y-135388152D02*
X51795237Y-136054819D01*
X51366666Y-135388152D02*
X51366666Y-135911961D01*
X51366666Y-135911961D02*
X51414285Y-136007200D01*
X51414285Y-136007200D02*
X51509523Y-136054819D01*
X51509523Y-136054819D02*
X51652380Y-136054819D01*
X51652380Y-136054819D02*
X51747618Y-136007200D01*
X51747618Y-136007200D02*
X51795237Y-135959580D01*
X52271428Y-136054819D02*
X52271428Y-135388152D01*
X52271428Y-135483390D02*
X52319047Y-135435771D01*
X52319047Y-135435771D02*
X52414285Y-135388152D01*
X52414285Y-135388152D02*
X52557142Y-135388152D01*
X52557142Y-135388152D02*
X52652380Y-135435771D01*
X52652380Y-135435771D02*
X52699999Y-135531009D01*
X52699999Y-135531009D02*
X52699999Y-136054819D01*
X52699999Y-135531009D02*
X52747618Y-135435771D01*
X52747618Y-135435771D02*
X52842856Y-135388152D01*
X52842856Y-135388152D02*
X52985713Y-135388152D01*
X52985713Y-135388152D02*
X53080952Y-135435771D01*
X53080952Y-135435771D02*
X53128571Y-135531009D01*
X53128571Y-135531009D02*
X53128571Y-136054819D01*
X53604761Y-135388152D02*
X53604761Y-136388152D01*
X53604761Y-135435771D02*
X53699999Y-135388152D01*
X53699999Y-135388152D02*
X53890475Y-135388152D01*
X53890475Y-135388152D02*
X53985713Y-135435771D01*
X53985713Y-135435771D02*
X54033332Y-135483390D01*
X54033332Y-135483390D02*
X54080951Y-135578628D01*
X54080951Y-135578628D02*
X54080951Y-135864342D01*
X54080951Y-135864342D02*
X54033332Y-135959580D01*
X54033332Y-135959580D02*
X53985713Y-136007200D01*
X53985713Y-136007200D02*
X53890475Y-136054819D01*
X53890475Y-136054819D02*
X53699999Y-136054819D01*
X53699999Y-136054819D02*
X53604761Y-136007200D01*
X54890475Y-136007200D02*
X54795237Y-136054819D01*
X54795237Y-136054819D02*
X54604761Y-136054819D01*
X54604761Y-136054819D02*
X54509523Y-136007200D01*
X54509523Y-136007200D02*
X54461904Y-135911961D01*
X54461904Y-135911961D02*
X54461904Y-135531009D01*
X54461904Y-135531009D02*
X54509523Y-135435771D01*
X54509523Y-135435771D02*
X54604761Y-135388152D01*
X54604761Y-135388152D02*
X54795237Y-135388152D01*
X54795237Y-135388152D02*
X54890475Y-135435771D01*
X54890475Y-135435771D02*
X54938094Y-135531009D01*
X54938094Y-135531009D02*
X54938094Y-135626247D01*
X54938094Y-135626247D02*
X54461904Y-135721485D01*
X55366666Y-136054819D02*
X55366666Y-135388152D01*
X55366666Y-135578628D02*
X55414285Y-135483390D01*
X55414285Y-135483390D02*
X55461904Y-135435771D01*
X55461904Y-135435771D02*
X55557142Y-135388152D01*
X55557142Y-135388152D02*
X55652380Y-135388152D01*
X56604762Y-135388152D02*
X56985714Y-135388152D01*
X56747619Y-136054819D02*
X56747619Y-135197676D01*
X56747619Y-135197676D02*
X56795238Y-135102438D01*
X56795238Y-135102438D02*
X56890476Y-135054819D01*
X56890476Y-135054819D02*
X56985714Y-135054819D01*
X57461905Y-136054819D02*
X57366667Y-136007200D01*
X57366667Y-136007200D02*
X57319048Y-135959580D01*
X57319048Y-135959580D02*
X57271429Y-135864342D01*
X57271429Y-135864342D02*
X57271429Y-135578628D01*
X57271429Y-135578628D02*
X57319048Y-135483390D01*
X57319048Y-135483390D02*
X57366667Y-135435771D01*
X57366667Y-135435771D02*
X57461905Y-135388152D01*
X57461905Y-135388152D02*
X57604762Y-135388152D01*
X57604762Y-135388152D02*
X57700000Y-135435771D01*
X57700000Y-135435771D02*
X57747619Y-135483390D01*
X57747619Y-135483390D02*
X57795238Y-135578628D01*
X57795238Y-135578628D02*
X57795238Y-135864342D01*
X57795238Y-135864342D02*
X57747619Y-135959580D01*
X57747619Y-135959580D02*
X57700000Y-136007200D01*
X57700000Y-136007200D02*
X57604762Y-136054819D01*
X57604762Y-136054819D02*
X57461905Y-136054819D01*
X58223810Y-136054819D02*
X58223810Y-135388152D01*
X58223810Y-135578628D02*
X58271429Y-135483390D01*
X58271429Y-135483390D02*
X58319048Y-135435771D01*
X58319048Y-135435771D02*
X58414286Y-135388152D01*
X58414286Y-135388152D02*
X58509524Y-135388152D01*
X59604763Y-135531009D02*
X59938096Y-135531009D01*
X60080953Y-136054819D02*
X59604763Y-136054819D01*
X59604763Y-136054819D02*
X59604763Y-135054819D01*
X59604763Y-135054819D02*
X60080953Y-135054819D01*
X60414287Y-136054819D02*
X60938096Y-135388152D01*
X60414287Y-135388152D02*
X60938096Y-136054819D01*
X61176192Y-135388152D02*
X61557144Y-135388152D01*
X61319049Y-135054819D02*
X61319049Y-135911961D01*
X61319049Y-135911961D02*
X61366668Y-136007200D01*
X61366668Y-136007200D02*
X61461906Y-136054819D01*
X61461906Y-136054819D02*
X61557144Y-136054819D01*
X62271430Y-136007200D02*
X62176192Y-136054819D01*
X62176192Y-136054819D02*
X61985716Y-136054819D01*
X61985716Y-136054819D02*
X61890478Y-136007200D01*
X61890478Y-136007200D02*
X61842859Y-135911961D01*
X61842859Y-135911961D02*
X61842859Y-135531009D01*
X61842859Y-135531009D02*
X61890478Y-135435771D01*
X61890478Y-135435771D02*
X61985716Y-135388152D01*
X61985716Y-135388152D02*
X62176192Y-135388152D01*
X62176192Y-135388152D02*
X62271430Y-135435771D01*
X62271430Y-135435771D02*
X62319049Y-135531009D01*
X62319049Y-135531009D02*
X62319049Y-135626247D01*
X62319049Y-135626247D02*
X61842859Y-135721485D01*
X62747621Y-136054819D02*
X62747621Y-135388152D01*
X62747621Y-135578628D02*
X62795240Y-135483390D01*
X62795240Y-135483390D02*
X62842859Y-135435771D01*
X62842859Y-135435771D02*
X62938097Y-135388152D01*
X62938097Y-135388152D02*
X63033335Y-135388152D01*
X63366669Y-135388152D02*
X63366669Y-136054819D01*
X63366669Y-135483390D02*
X63414288Y-135435771D01*
X63414288Y-135435771D02*
X63509526Y-135388152D01*
X63509526Y-135388152D02*
X63652383Y-135388152D01*
X63652383Y-135388152D02*
X63747621Y-135435771D01*
X63747621Y-135435771D02*
X63795240Y-135531009D01*
X63795240Y-135531009D02*
X63795240Y-136054819D01*
X64700002Y-136054819D02*
X64700002Y-135531009D01*
X64700002Y-135531009D02*
X64652383Y-135435771D01*
X64652383Y-135435771D02*
X64557145Y-135388152D01*
X64557145Y-135388152D02*
X64366669Y-135388152D01*
X64366669Y-135388152D02*
X64271431Y-135435771D01*
X64700002Y-136007200D02*
X64604764Y-136054819D01*
X64604764Y-136054819D02*
X64366669Y-136054819D01*
X64366669Y-136054819D02*
X64271431Y-136007200D01*
X64271431Y-136007200D02*
X64223812Y-135911961D01*
X64223812Y-135911961D02*
X64223812Y-135816723D01*
X64223812Y-135816723D02*
X64271431Y-135721485D01*
X64271431Y-135721485D02*
X64366669Y-135673866D01*
X64366669Y-135673866D02*
X64604764Y-135673866D01*
X64604764Y-135673866D02*
X64700002Y-135626247D01*
X65319050Y-136054819D02*
X65223812Y-136007200D01*
X65223812Y-136007200D02*
X65176193Y-135911961D01*
X65176193Y-135911961D02*
X65176193Y-135054819D01*
X67033336Y-136054819D02*
X66700003Y-135578628D01*
X66461908Y-136054819D02*
X66461908Y-135054819D01*
X66461908Y-135054819D02*
X66842860Y-135054819D01*
X66842860Y-135054819D02*
X66938098Y-135102438D01*
X66938098Y-135102438D02*
X66985717Y-135150057D01*
X66985717Y-135150057D02*
X67033336Y-135245295D01*
X67033336Y-135245295D02*
X67033336Y-135388152D01*
X67033336Y-135388152D02*
X66985717Y-135483390D01*
X66985717Y-135483390D02*
X66938098Y-135531009D01*
X66938098Y-135531009D02*
X66842860Y-135578628D01*
X66842860Y-135578628D02*
X66461908Y-135578628D01*
X67652384Y-135054819D02*
X67842860Y-135054819D01*
X67842860Y-135054819D02*
X67938098Y-135102438D01*
X67938098Y-135102438D02*
X68033336Y-135197676D01*
X68033336Y-135197676D02*
X68080955Y-135388152D01*
X68080955Y-135388152D02*
X68080955Y-135721485D01*
X68080955Y-135721485D02*
X68033336Y-135911961D01*
X68033336Y-135911961D02*
X67938098Y-136007200D01*
X67938098Y-136007200D02*
X67842860Y-136054819D01*
X67842860Y-136054819D02*
X67652384Y-136054819D01*
X67652384Y-136054819D02*
X67557146Y-136007200D01*
X67557146Y-136007200D02*
X67461908Y-135911961D01*
X67461908Y-135911961D02*
X67414289Y-135721485D01*
X67414289Y-135721485D02*
X67414289Y-135388152D01*
X67414289Y-135388152D02*
X67461908Y-135197676D01*
X67461908Y-135197676D02*
X67557146Y-135102438D01*
X67557146Y-135102438D02*
X67652384Y-135054819D01*
X68509527Y-136054819D02*
X68509527Y-135054819D01*
X68509527Y-135054819D02*
X68842860Y-135769104D01*
X68842860Y-135769104D02*
X69176193Y-135054819D01*
X69176193Y-135054819D02*
X69176193Y-136054819D01*
X91784819Y-125486904D02*
X92594342Y-125486904D01*
X92594342Y-125486904D02*
X92689580Y-125439285D01*
X92689580Y-125439285D02*
X92737200Y-125391666D01*
X92737200Y-125391666D02*
X92784819Y-125296428D01*
X92784819Y-125296428D02*
X92784819Y-125105952D01*
X92784819Y-125105952D02*
X92737200Y-125010714D01*
X92737200Y-125010714D02*
X92689580Y-124963095D01*
X92689580Y-124963095D02*
X92594342Y-124915476D01*
X92594342Y-124915476D02*
X91784819Y-124915476D01*
X92118152Y-124010714D02*
X92784819Y-124010714D01*
X91737200Y-124248809D02*
X92451485Y-124486904D01*
X92451485Y-124486904D02*
X92451485Y-123867857D01*
X119304819Y-128367856D02*
X119304819Y-127701190D01*
X119304819Y-127701190D02*
X120304819Y-128129761D01*
X119638152Y-126891666D02*
X120304819Y-126891666D01*
X119257200Y-127129761D02*
X119971485Y-127367856D01*
X119971485Y-127367856D02*
X119971485Y-126748809D01*
X120304819Y-126367856D02*
X119304819Y-126367856D01*
X119781009Y-126367856D02*
X119781009Y-125796428D01*
X120304819Y-125796428D02*
X119304819Y-125796428D01*
X120209580Y-124748809D02*
X120257200Y-124796428D01*
X120257200Y-124796428D02*
X120304819Y-124939285D01*
X120304819Y-124939285D02*
X120304819Y-125034523D01*
X120304819Y-125034523D02*
X120257200Y-125177380D01*
X120257200Y-125177380D02*
X120161961Y-125272618D01*
X120161961Y-125272618D02*
X120066723Y-125320237D01*
X120066723Y-125320237D02*
X119876247Y-125367856D01*
X119876247Y-125367856D02*
X119733390Y-125367856D01*
X119733390Y-125367856D02*
X119542914Y-125320237D01*
X119542914Y-125320237D02*
X119447676Y-125272618D01*
X119447676Y-125272618D02*
X119352438Y-125177380D01*
X119352438Y-125177380D02*
X119304819Y-125034523D01*
X119304819Y-125034523D02*
X119304819Y-124939285D01*
X119304819Y-124939285D02*
X119352438Y-124796428D01*
X119352438Y-124796428D02*
X119400057Y-124748809D01*
X119304819Y-124463094D02*
X119304819Y-123891666D01*
X120304819Y-124177380D02*
X119304819Y-124177380D01*
X119400057Y-123605951D02*
X119352438Y-123558332D01*
X119352438Y-123558332D02*
X119304819Y-123463094D01*
X119304819Y-123463094D02*
X119304819Y-123224999D01*
X119304819Y-123224999D02*
X119352438Y-123129761D01*
X119352438Y-123129761D02*
X119400057Y-123082142D01*
X119400057Y-123082142D02*
X119495295Y-123034523D01*
X119495295Y-123034523D02*
X119590533Y-123034523D01*
X119590533Y-123034523D02*
X119733390Y-123082142D01*
X119733390Y-123082142D02*
X120304819Y-123653570D01*
X120304819Y-123653570D02*
X120304819Y-123034523D01*
X119304819Y-122701189D02*
X119304819Y-122034523D01*
X119304819Y-122034523D02*
X120304819Y-122463094D01*
X119304819Y-121748808D02*
X119304819Y-121129761D01*
X119304819Y-121129761D02*
X119685771Y-121463094D01*
X119685771Y-121463094D02*
X119685771Y-121320237D01*
X119685771Y-121320237D02*
X119733390Y-121224999D01*
X119733390Y-121224999D02*
X119781009Y-121177380D01*
X119781009Y-121177380D02*
X119876247Y-121129761D01*
X119876247Y-121129761D02*
X120114342Y-121129761D01*
X120114342Y-121129761D02*
X120209580Y-121177380D01*
X120209580Y-121177380D02*
X120257200Y-121224999D01*
X120257200Y-121224999D02*
X120304819Y-121320237D01*
X120304819Y-121320237D02*
X120304819Y-121605951D01*
X120304819Y-121605951D02*
X120257200Y-121701189D01*
X120257200Y-121701189D02*
X120209580Y-121748808D01*
X102133333Y-98884819D02*
X101800000Y-98408628D01*
X101561905Y-98884819D02*
X101561905Y-97884819D01*
X101561905Y-97884819D02*
X101942857Y-97884819D01*
X101942857Y-97884819D02*
X102038095Y-97932438D01*
X102038095Y-97932438D02*
X102085714Y-97980057D01*
X102085714Y-97980057D02*
X102133333Y-98075295D01*
X102133333Y-98075295D02*
X102133333Y-98218152D01*
X102133333Y-98218152D02*
X102085714Y-98313390D01*
X102085714Y-98313390D02*
X102038095Y-98361009D01*
X102038095Y-98361009D02*
X101942857Y-98408628D01*
X101942857Y-98408628D02*
X101561905Y-98408628D01*
X103085714Y-98884819D02*
X102514286Y-98884819D01*
X102800000Y-98884819D02*
X102800000Y-97884819D01*
X102800000Y-97884819D02*
X102704762Y-98027676D01*
X102704762Y-98027676D02*
X102609524Y-98122914D01*
X102609524Y-98122914D02*
X102514286Y-98170533D01*
X102085714Y-103624819D02*
X101514286Y-103624819D01*
X101800000Y-103624819D02*
X101800000Y-102624819D01*
X101800000Y-102624819D02*
X101704762Y-102767676D01*
X101704762Y-102767676D02*
X101609524Y-102862914D01*
X101609524Y-102862914D02*
X101514286Y-102910533D01*
X102514286Y-103624819D02*
X102514286Y-102624819D01*
X103085714Y-103624819D02*
X102657143Y-103053390D01*
X103085714Y-102624819D02*
X102514286Y-103196247D01*
D12*
%TO.C,C1*%
X39530000Y-99030000D02*
X39530000Y-106770000D01*
X42270000Y-99030000D02*
X39530000Y-99030000D01*
X42270000Y-99030000D02*
X42270000Y-106770000D01*
X42270000Y-106770000D02*
X39530000Y-106770000D01*
%TO.C,C2*%
X83330000Y-106430000D02*
X83330000Y-114170000D01*
X86070000Y-106430000D02*
X83330000Y-106430000D01*
X86070000Y-106430000D02*
X86070000Y-114170000D01*
X86070000Y-114170000D02*
X83330000Y-114170000D01*
%TO.C,U3*%
X43390000Y-118660000D02*
X43390000Y-123720000D01*
X43390000Y-125720000D02*
X43390000Y-130780000D01*
X43390000Y-130780000D02*
X84150000Y-130780000D01*
X84150000Y-118660000D02*
X43390000Y-118660000D01*
X84150000Y-130780000D02*
X84150000Y-118660000D01*
X43390000Y-123720000D02*
G75*
G02*
X43390000Y-125720000I0J-1000000D01*
G01*
%TO.C,U1*%
X43390000Y-96835000D02*
X43390000Y-101895000D01*
X43390000Y-103895000D02*
X43390000Y-108955000D01*
X43390000Y-108955000D02*
X79070000Y-108955000D01*
X79070000Y-96835000D02*
X43390000Y-96835000D01*
X79070000Y-108955000D02*
X79070000Y-96835000D01*
X43390000Y-101895000D02*
G75*
G02*
X43390000Y-103895000I0J-1000000D01*
G01*
%TO.C,C4*%
X88610000Y-120855000D02*
X88610000Y-128595000D01*
X91350000Y-120855000D02*
X88610000Y-120855000D01*
X91350000Y-120855000D02*
X91350000Y-128595000D01*
X91350000Y-128595000D02*
X88610000Y-128595000D01*
%TO.C,C3*%
X39630000Y-120855000D02*
X39630000Y-128595000D01*
X42370000Y-120855000D02*
X39630000Y-120855000D01*
X42370000Y-120855000D02*
X42370000Y-128595000D01*
X42370000Y-128595000D02*
X39630000Y-128595000D01*
%TO.C,JP2*%
X110730000Y-96930000D02*
X110730000Y-95600000D01*
X112060000Y-96930000D02*
X110730000Y-96930000D01*
X113330000Y-94270000D02*
X118470000Y-94270000D01*
X113330000Y-96930000D02*
X113330000Y-94270000D01*
X113330000Y-96930000D02*
X118470000Y-96930000D01*
X118470000Y-96930000D02*
X118470000Y-94270000D01*
%TO.C,U2*%
X88290000Y-107940000D02*
X88290000Y-109190000D01*
X88290000Y-111190000D02*
X88290000Y-112440000D01*
X88290000Y-112440000D02*
X118890000Y-112440000D01*
X118890000Y-107940000D02*
X88290000Y-107940000D01*
X118890000Y-112440000D02*
X118890000Y-107940000D01*
X88290000Y-109190000D02*
G75*
G02*
X88290000Y-111190000I0J-1000000D01*
G01*
%TO.C,JP1*%
X38470000Y-131070000D02*
X39800000Y-131070000D01*
X38470000Y-132400000D02*
X38470000Y-131070000D01*
X38470000Y-133670000D02*
X38470000Y-136270000D01*
X38470000Y-133670000D02*
X41130000Y-133670000D01*
X38470000Y-136270000D02*
X41130000Y-136270000D01*
X41130000Y-133670000D02*
X41130000Y-136270000D01*
%TO.C,U4*%
X93330000Y-122475000D02*
X93330000Y-123725000D01*
X93330000Y-125725000D02*
X93330000Y-126975000D01*
X93330000Y-126975000D02*
X118850000Y-126975000D01*
X118850000Y-122475000D02*
X93330000Y-122475000D01*
X118850000Y-126975000D02*
X118850000Y-122475000D01*
X93330000Y-123725000D02*
G75*
G02*
X93330000Y-125725000I0J-1000000D01*
G01*
%TO.C,R1*%
X98260000Y-100800000D02*
X99030000Y-100800000D01*
X99030000Y-99430000D02*
X99030000Y-102170000D01*
X99030000Y-102170000D02*
X105570000Y-102170000D01*
X105570000Y-99430000D02*
X99030000Y-99430000D01*
X105570000Y-102170000D02*
X105570000Y-99430000D01*
X106340000Y-100800000D02*
X105570000Y-100800000D01*
%TD*%
M02*
