%TF.GenerationSoftware,KiCad,Pcbnew,9.0.0*%
%TF.CreationDate,2025-03-16T01:26:31+03:00*%
%TF.ProjectId,128k_expander,3132386b-5f65-4787-9061-6e6465722e6b,rev?*%
%TF.SameCoordinates,Original*%
%TF.FileFunction,Soldermask,Top*%
%TF.FilePolarity,Negative*%
%FSLAX46Y46*%
G04 Gerber Fmt 4.6, Leading zero omitted, Abs format (unit mm)*
G04 Created by KiCad (PCBNEW 9.0.0) date 2025-03-16 01:26:31*
%MOMM*%
%LPD*%
G01*
G04 APERTURE LIST*
G04 Aperture macros list*
%AMRoundRect*
0 Rectangle with rounded corners*
0 $1 Rounding radius*
0 $2 $3 $4 $5 $6 $7 $8 $9 X,Y pos of 4 corners*
0 Add a 4 corners polygon primitive as box body*
4,1,4,$2,$3,$4,$5,$6,$7,$8,$9,$2,$3,0*
0 Add four circle primitives for the rounded corners*
1,1,$1+$1,$2,$3*
1,1,$1+$1,$4,$5*
1,1,$1+$1,$6,$7*
1,1,$1+$1,$8,$9*
0 Add four rect primitives between the rounded corners*
20,1,$1+$1,$2,$3,$4,$5,0*
20,1,$1+$1,$4,$5,$6,$7,0*
20,1,$1+$1,$6,$7,$8,$9,0*
20,1,$1+$1,$8,$9,$2,$3,0*%
G04 Aperture macros list end*
%ADD10C,0.120000*%
%ADD11C,2.000000*%
%ADD12RoundRect,0.250000X0.550000X-0.950000X0.550000X0.950000X-0.550000X0.950000X-0.550000X-0.950000X0*%
%ADD13O,1.600000X2.400000*%
%ADD14R,1.700000X1.700000*%
%ADD15O,1.700000X1.700000*%
%ADD16C,1.600000*%
%ADD17O,1.600000X1.600000*%
G04 APERTURE END LIST*
%TO.C,J2*%
D10*
X44665000Y-147010000D02*
X45935000Y-147010000D01*
X45935000Y-139390000D01*
X44665000Y-139390000D01*
X44665000Y-147010000D01*
G36*
X44665000Y-147010000D02*
G01*
X45935000Y-147010000D01*
X45935000Y-139390000D01*
X44665000Y-139390000D01*
X44665000Y-147010000D01*
G37*
X47205000Y-147010000D02*
X48475000Y-147010000D01*
X48475000Y-139390000D01*
X47205000Y-139390000D01*
X47205000Y-147010000D01*
G36*
X47205000Y-147010000D02*
G01*
X48475000Y-147010000D01*
X48475000Y-139390000D01*
X47205000Y-139390000D01*
X47205000Y-147010000D01*
G37*
X49745000Y-147010000D02*
X51015000Y-147010000D01*
X51015000Y-139390000D01*
X49745000Y-139390000D01*
X49745000Y-147010000D01*
G36*
X49745000Y-147010000D02*
G01*
X51015000Y-147010000D01*
X51015000Y-139390000D01*
X49745000Y-139390000D01*
X49745000Y-147010000D01*
G37*
X52285000Y-147010000D02*
X53555000Y-147010000D01*
X53555000Y-139390000D01*
X52285000Y-139390000D01*
X52285000Y-147010000D01*
G36*
X52285000Y-147010000D02*
G01*
X53555000Y-147010000D01*
X53555000Y-139390000D01*
X52285000Y-139390000D01*
X52285000Y-147010000D01*
G37*
X54825000Y-147010000D02*
X56095000Y-147010000D01*
X56095000Y-139390000D01*
X54825000Y-139390000D01*
X54825000Y-147010000D01*
G36*
X54825000Y-147010000D02*
G01*
X56095000Y-147010000D01*
X56095000Y-139390000D01*
X54825000Y-139390000D01*
X54825000Y-147010000D01*
G37*
X57365000Y-147010000D02*
X58635000Y-147010000D01*
X58635000Y-139390000D01*
X57365000Y-139390000D01*
X57365000Y-147010000D01*
G36*
X57365000Y-147010000D02*
G01*
X58635000Y-147010000D01*
X58635000Y-139390000D01*
X57365000Y-139390000D01*
X57365000Y-147010000D01*
G37*
X59905000Y-147010000D02*
X61175000Y-147010000D01*
X61175000Y-139390000D01*
X59905000Y-139390000D01*
X59905000Y-147010000D01*
G36*
X59905000Y-147010000D02*
G01*
X61175000Y-147010000D01*
X61175000Y-139390000D01*
X59905000Y-139390000D01*
X59905000Y-147010000D01*
G37*
X62445000Y-147010000D02*
X63715000Y-147010000D01*
X63715000Y-139390000D01*
X62445000Y-139390000D01*
X62445000Y-147010000D01*
G36*
X62445000Y-147010000D02*
G01*
X63715000Y-147010000D01*
X63715000Y-139390000D01*
X62445000Y-139390000D01*
X62445000Y-147010000D01*
G37*
X64985000Y-147010000D02*
X66255000Y-147010000D01*
X66255000Y-139390000D01*
X64985000Y-139390000D01*
X64985000Y-147010000D01*
G36*
X64985000Y-147010000D02*
G01*
X66255000Y-147010000D01*
X66255000Y-139390000D01*
X64985000Y-139390000D01*
X64985000Y-147010000D01*
G37*
X67525000Y-147010000D02*
X68795000Y-147010000D01*
X68795000Y-139390000D01*
X67525000Y-139390000D01*
X67525000Y-147010000D01*
G36*
X67525000Y-147010000D02*
G01*
X68795000Y-147010000D01*
X68795000Y-139390000D01*
X67525000Y-139390000D01*
X67525000Y-147010000D01*
G37*
X70065000Y-147010000D02*
X71335000Y-147010000D01*
X71335000Y-139390000D01*
X70065000Y-139390000D01*
X70065000Y-147010000D01*
G36*
X70065000Y-147010000D02*
G01*
X71335000Y-147010000D01*
X71335000Y-139390000D01*
X70065000Y-139390000D01*
X70065000Y-147010000D01*
G37*
X72605000Y-147010000D02*
X73875000Y-147010000D01*
X73875000Y-139390000D01*
X72605000Y-139390000D01*
X72605000Y-147010000D01*
G36*
X72605000Y-147010000D02*
G01*
X73875000Y-147010000D01*
X73875000Y-139390000D01*
X72605000Y-139390000D01*
X72605000Y-147010000D01*
G37*
X75145000Y-147010000D02*
X76415000Y-147010000D01*
X76415000Y-139390000D01*
X75145000Y-139390000D01*
X75145000Y-147010000D01*
G36*
X75145000Y-147010000D02*
G01*
X76415000Y-147010000D01*
X76415000Y-139390000D01*
X75145000Y-139390000D01*
X75145000Y-147010000D01*
G37*
X77685000Y-147010000D02*
X78955000Y-147010000D01*
X78955000Y-139390000D01*
X77685000Y-139390000D01*
X77685000Y-147010000D01*
G36*
X77685000Y-147010000D02*
G01*
X78955000Y-147010000D01*
X78955000Y-139390000D01*
X77685000Y-139390000D01*
X77685000Y-147010000D01*
G37*
X80225000Y-147010000D02*
X81495000Y-147010000D01*
X81495000Y-139390000D01*
X80225000Y-139390000D01*
X80225000Y-147010000D01*
G36*
X80225000Y-147010000D02*
G01*
X81495000Y-147010000D01*
X81495000Y-139390000D01*
X80225000Y-139390000D01*
X80225000Y-147010000D01*
G37*
X82765000Y-147010000D02*
X84035000Y-147010000D01*
X84035000Y-139390000D01*
X82765000Y-139390000D01*
X82765000Y-147010000D01*
G36*
X82765000Y-147010000D02*
G01*
X84035000Y-147010000D01*
X84035000Y-139390000D01*
X82765000Y-139390000D01*
X82765000Y-147010000D01*
G37*
X85305000Y-147010000D02*
X86575000Y-147010000D01*
X86575000Y-139390000D01*
X85305000Y-139390000D01*
X85305000Y-147010000D01*
G36*
X85305000Y-147010000D02*
G01*
X86575000Y-147010000D01*
X86575000Y-139390000D01*
X85305000Y-139390000D01*
X85305000Y-147010000D01*
G37*
X87845000Y-147010000D02*
X89115000Y-147010000D01*
X89115000Y-139390000D01*
X87845000Y-139390000D01*
X87845000Y-147010000D01*
G36*
X87845000Y-147010000D02*
G01*
X89115000Y-147010000D01*
X89115000Y-139390000D01*
X87845000Y-139390000D01*
X87845000Y-147010000D01*
G37*
X90385000Y-147010000D02*
X91655000Y-147010000D01*
X91655000Y-139390000D01*
X90385000Y-139390000D01*
X90385000Y-147010000D01*
G36*
X90385000Y-147010000D02*
G01*
X91655000Y-147010000D01*
X91655000Y-139390000D01*
X90385000Y-139390000D01*
X90385000Y-147010000D01*
G37*
X92925000Y-147010000D02*
X94195000Y-147010000D01*
X94195000Y-139390000D01*
X92925000Y-139390000D01*
X92925000Y-147010000D01*
G36*
X92925000Y-147010000D02*
G01*
X94195000Y-147010000D01*
X94195000Y-139390000D01*
X92925000Y-139390000D01*
X92925000Y-147010000D01*
G37*
X95465000Y-147010000D02*
X96735000Y-147010000D01*
X96735000Y-139390000D01*
X95465000Y-139390000D01*
X95465000Y-147010000D01*
G36*
X95465000Y-147010000D02*
G01*
X96735000Y-147010000D01*
X96735000Y-139390000D01*
X95465000Y-139390000D01*
X95465000Y-147010000D01*
G37*
X98005000Y-147010000D02*
X99275000Y-147010000D01*
X99275000Y-139390000D01*
X98005000Y-139390000D01*
X98005000Y-147010000D01*
G36*
X98005000Y-147010000D02*
G01*
X99275000Y-147010000D01*
X99275000Y-139390000D01*
X98005000Y-139390000D01*
X98005000Y-147010000D01*
G37*
X100545000Y-147010000D02*
X101815000Y-147010000D01*
X101815000Y-139390000D01*
X100545000Y-139390000D01*
X100545000Y-147010000D01*
G36*
X100545000Y-147010000D02*
G01*
X101815000Y-147010000D01*
X101815000Y-139390000D01*
X100545000Y-139390000D01*
X100545000Y-147010000D01*
G37*
X105625000Y-147010000D02*
X106895000Y-147010000D01*
X106895000Y-139390000D01*
X105625000Y-139390000D01*
X105625000Y-147010000D01*
G36*
X105625000Y-147010000D02*
G01*
X106895000Y-147010000D01*
X106895000Y-139390000D01*
X105625000Y-139390000D01*
X105625000Y-147010000D01*
G37*
X108165000Y-147010000D02*
X109435000Y-147010000D01*
X109435000Y-139390000D01*
X108165000Y-139390000D01*
X108165000Y-147010000D01*
G36*
X108165000Y-147010000D02*
G01*
X109435000Y-147010000D01*
X109435000Y-139390000D01*
X108165000Y-139390000D01*
X108165000Y-147010000D01*
G37*
X110705000Y-147010000D02*
X111975000Y-147010000D01*
X111975000Y-139390000D01*
X110705000Y-139390000D01*
X110705000Y-147010000D01*
G36*
X110705000Y-147010000D02*
G01*
X111975000Y-147010000D01*
X111975000Y-139390000D01*
X110705000Y-139390000D01*
X110705000Y-147010000D01*
G37*
X113245000Y-147010000D02*
X114515000Y-147010000D01*
X114515000Y-139390000D01*
X113245000Y-139390000D01*
X113245000Y-147010000D01*
G36*
X113245000Y-147010000D02*
G01*
X114515000Y-147010000D01*
X114515000Y-139390000D01*
X113245000Y-139390000D01*
X113245000Y-147010000D01*
G37*
%TD*%
D11*
%TO.C,C1*%
X40900000Y-100400000D03*
X40900000Y-105400000D03*
%TD*%
%TO.C,C2*%
X84700000Y-107800000D03*
X84700000Y-112800000D03*
%TD*%
D12*
%TO.C,U3*%
X44720000Y-132340000D03*
D13*
X47260000Y-132340000D03*
X49800000Y-132340000D03*
X52340000Y-132340000D03*
X54880000Y-132340000D03*
X57420000Y-132340000D03*
X59960000Y-132340000D03*
X62500000Y-132340000D03*
X65040000Y-132340000D03*
X67580000Y-132340000D03*
X70120000Y-132340000D03*
X72660000Y-132340000D03*
X75200000Y-132340000D03*
X77740000Y-132340000D03*
X80280000Y-132340000D03*
X82820000Y-132340000D03*
X82820000Y-117100000D03*
X80280000Y-117100000D03*
X77740000Y-117100000D03*
X75200000Y-117100000D03*
X72660000Y-117100000D03*
X70120000Y-117100000D03*
X67580000Y-117100000D03*
X65040000Y-117100000D03*
X62500000Y-117100000D03*
X59960000Y-117100000D03*
X57420000Y-117100000D03*
X54880000Y-117100000D03*
X52340000Y-117100000D03*
X49800000Y-117100000D03*
X47260000Y-117100000D03*
X44720000Y-117100000D03*
%TD*%
D12*
%TO.C,U1*%
X44720000Y-110515000D03*
D13*
X47260000Y-110515000D03*
X49800000Y-110515000D03*
X52340000Y-110515000D03*
X54880000Y-110515000D03*
X57420000Y-110515000D03*
X59960000Y-110515000D03*
X62500000Y-110515000D03*
X65040000Y-110515000D03*
X67580000Y-110515000D03*
X70120000Y-110515000D03*
X72660000Y-110515000D03*
X75200000Y-110515000D03*
X77740000Y-110515000D03*
X77740000Y-95275000D03*
X75200000Y-95275000D03*
X72660000Y-95275000D03*
X70120000Y-95275000D03*
X67580000Y-95275000D03*
X65040000Y-95275000D03*
X62500000Y-95275000D03*
X59960000Y-95275000D03*
X57420000Y-95275000D03*
X54880000Y-95275000D03*
X52340000Y-95275000D03*
X49800000Y-95275000D03*
X47260000Y-95275000D03*
X44720000Y-95275000D03*
%TD*%
D11*
%TO.C,C4*%
X89980000Y-122225000D03*
X89980000Y-127225000D03*
%TD*%
%TO.C,C3*%
X41000000Y-122225000D03*
X41000000Y-127225000D03*
%TD*%
D14*
%TO.C,JP2*%
X112060000Y-95600000D03*
D15*
X114600000Y-95600000D03*
X117140000Y-95600000D03*
%TD*%
D12*
%TO.C,U2*%
X89620000Y-114000000D03*
D13*
X92160000Y-114000000D03*
X94700000Y-114000000D03*
X97240000Y-114000000D03*
X99780000Y-114000000D03*
X102320000Y-114000000D03*
X104860000Y-114000000D03*
X107400000Y-114000000D03*
X109940000Y-114000000D03*
X112480000Y-114000000D03*
X115020000Y-114000000D03*
X117560000Y-114000000D03*
X117560000Y-106380000D03*
X115020000Y-106380000D03*
X112480000Y-106380000D03*
X109940000Y-106380000D03*
X107400000Y-106380000D03*
X104860000Y-106380000D03*
X102320000Y-106380000D03*
X99780000Y-106380000D03*
X97240000Y-106380000D03*
X94700000Y-106380000D03*
X92160000Y-106380000D03*
X89620000Y-106380000D03*
%TD*%
D14*
%TO.C,JP1*%
X39800000Y-132400000D03*
D15*
X39800000Y-134940000D03*
%TD*%
D12*
%TO.C,U4*%
X94660000Y-128535000D03*
D13*
X97200000Y-128535000D03*
X99740000Y-128535000D03*
X102280000Y-128535000D03*
X104820000Y-128535000D03*
X107360000Y-128535000D03*
X109900000Y-128535000D03*
X112440000Y-128535000D03*
X114980000Y-128535000D03*
X117520000Y-128535000D03*
X117520000Y-120915000D03*
X114980000Y-120915000D03*
X112440000Y-120915000D03*
X109900000Y-120915000D03*
X107360000Y-120915000D03*
X104820000Y-120915000D03*
X102280000Y-120915000D03*
X99740000Y-120915000D03*
X97200000Y-120915000D03*
X94660000Y-120915000D03*
%TD*%
D16*
%TO.C,R1*%
X97220000Y-100800000D03*
D17*
X107380000Y-100800000D03*
%TD*%
M02*
