M48
; DRILL file {KiCad 9.0.0} date 2025-03-16T01:26:32+0300
; FORMAT={-:-/ absolute / metric / decimal}
; #@! TF.CreationDate,2025-03-16T01:26:32+03:00
; #@! TF.GenerationSoftware,Kicad,Pcbnew,9.0.0
; #@! TF.FileFunction,Plated,1,2,PTH
FMAT,2
METRIC
; #@! TA.AperFunction,Plated,PTH,ViaDrill
T1C0.300
; #@! TA.AperFunction,Plated,PTH,ComponentDrill
T2C0.800
; #@! TA.AperFunction,Plated,PTH,ComponentDrill
T3C1.000
%
G90
G05
T1
X38.9Y-95.4
X40.3Y-94.3
X40.9Y-113.7
X40.9Y-124.7
X41.9Y-130.0
X44.5Y-128.4
X44.7Y-123.5
X46.0Y-100.9
X46.745Y-107.1
X47.2Y-124.8
X48.978Y-138.1
X49.7Y-100.9
X49.7Y-135.1
X49.785Y-107.581
X49.8Y-124.7
X51.1Y-134.6
X52.4Y-124.1
X52.4Y-128.4
X52.5Y-100.9
X53.6Y-135.7
X54.1Y-137.4
X54.9Y-107.0
X55.186Y-114.257
X56.1Y-99.8
X56.15Y-119.449
X56.348Y-103.758
X57.375Y-112.321
X57.4Y-124.5
X57.778Y-113.593
X59.418Y-112.92
X59.9Y-124.3
X60.613Y-114.721
X62.1Y-124.9
X62.5Y-123.1
X62.9Y-99.8
X63.0Y-128.0
X64.5Y-106.7
X66.3Y-129.6
X67.2Y-128.4
X68.4Y-130.5
X69.415Y-113.253
X69.483Y-137.5
X71.01Y-123.094
X71.5Y-127.5
X72.415Y-112.27
X73.9Y-127.4
X75.6Y-100.7
X76.15Y-135.185
X76.6Y-107.2
X76.7Y-123.0
X77.3Y-138.1
X78.2Y-127.5
X78.275Y-135.969
X78.5Y-129.4
X79.029Y-125.364
X79.05Y-137.503
X79.805Y-112.756
X80.14Y-123.749
X80.274Y-98.826
X80.4Y-110.8
X80.6Y-108.9
X81.715Y-122.859
X82.2Y-107.6
X82.3Y-113.6
X82.9Y-129.4
X83.6Y-127.9
X83.611Y-135.219
X83.7Y-95.6
X84.237Y-138.563
X84.541Y-136.735
X84.9Y-105.7
X85.2Y-117.0
X85.5Y-100.6
X85.748Y-119.395
X86.065Y-136.073
X86.9Y-113.0
X87.533Y-130.261
X87.7Y-132.5
X87.75Y-95.739
X89.8Y-110.5
X90.3Y-111.9
X90.5Y-129.7
X91.3Y-99.7
X91.9Y-136.6
X92.0Y-131.8
X92.5Y-111.0
X93.0Y-117.0
X93.7Y-110.201
X93.9Y-132.8
X94.9Y-110.8
X96.092Y-137.2
X96.295Y-118.606
X98.2Y-117.8
X98.5Y-110.7
X99.5Y-135.2
X101.7Y-109.2
X102.7Y-132.4
X105.4Y-95.7
X105.8Y-126.0
X106.5Y-104.0
X107.2Y-135.6
X108.7Y-109.3
X110.5Y-134.3
X110.7Y-137.3
X111.976Y-124.967
X112.277Y-136.0
X113.1Y-111.4
X114.4Y-133.0
X115.3Y-117.6
X116.3Y-124.2
X117.7Y-133.1
T2
X44.72Y-95.275
X44.72Y-110.515
X44.72Y-117.1
X44.72Y-132.34
X47.26Y-95.275
X47.26Y-110.515
X47.26Y-117.1
X47.26Y-132.34
X49.8Y-95.275
X49.8Y-110.515
X49.8Y-117.1
X49.8Y-132.34
X52.34Y-95.275
X52.34Y-110.515
X52.34Y-117.1
X52.34Y-132.34
X54.88Y-95.275
X54.88Y-110.515
X54.88Y-117.1
X54.88Y-132.34
X57.42Y-95.275
X57.42Y-110.515
X57.42Y-117.1
X57.42Y-132.34
X59.96Y-95.275
X59.96Y-110.515
X59.96Y-117.1
X59.96Y-132.34
X62.5Y-95.275
X62.5Y-110.515
X62.5Y-117.1
X62.5Y-132.34
X65.04Y-95.275
X65.04Y-110.515
X65.04Y-117.1
X65.04Y-132.34
X67.58Y-95.275
X67.58Y-110.515
X67.58Y-117.1
X67.58Y-132.34
X70.12Y-95.275
X70.12Y-110.515
X70.12Y-117.1
X70.12Y-132.34
X72.66Y-95.275
X72.66Y-110.515
X72.66Y-117.1
X72.66Y-132.34
X75.2Y-95.275
X75.2Y-110.515
X75.2Y-117.1
X75.2Y-132.34
X77.74Y-95.275
X77.74Y-110.515
X77.74Y-117.1
X77.74Y-132.34
X80.28Y-117.1
X80.28Y-132.34
X82.82Y-117.1
X82.82Y-132.34
X89.62Y-106.38
X89.62Y-114.0
X92.16Y-106.38
X92.16Y-114.0
X94.66Y-120.915
X94.66Y-128.535
X94.7Y-106.38
X94.7Y-114.0
X97.2Y-120.915
X97.2Y-128.535
X97.22Y-100.8
X97.24Y-106.38
X97.24Y-114.0
X99.74Y-120.915
X99.74Y-128.535
X99.78Y-106.38
X99.78Y-114.0
X102.28Y-120.915
X102.28Y-128.535
X102.32Y-106.38
X102.32Y-114.0
X104.82Y-120.915
X104.82Y-128.535
X104.86Y-106.38
X104.86Y-114.0
X107.36Y-120.915
X107.36Y-128.535
X107.38Y-100.8
X107.4Y-106.38
X107.4Y-114.0
X109.9Y-120.915
X109.9Y-128.535
X109.94Y-106.38
X109.94Y-114.0
X112.44Y-120.915
X112.44Y-128.535
X112.48Y-106.38
X112.48Y-114.0
X114.98Y-120.915
X114.98Y-128.535
X115.02Y-106.38
X115.02Y-114.0
X117.52Y-120.915
X117.52Y-128.535
X117.56Y-106.38
X117.56Y-114.0
T3
X39.8Y-132.4
X39.8Y-134.94
X40.9Y-100.4
X40.9Y-105.4
X41.0Y-122.225
X41.0Y-127.225
X84.7Y-107.8
X84.7Y-112.8
X89.98Y-122.225
X89.98Y-127.225
X112.06Y-95.6
X114.6Y-95.6
X117.14Y-95.6
M30
